<?xml version="1.0" encoding="UTF-8"?>
<svg version="1.1" xmlns="http://www.w3.org/2000/svg" width="2048" height="2048">
<path d="M0 0 C1.12148437 0.90492187 1.12148437 0.90492187 2.265625 1.828125 C20.35847955 16.88441655 32.04729905 40.69310246 34.28800106 63.99503517 C34.95891115 72.88552581 35.1373264 81.72175877 35.11352539 90.63427734 C35.11324248 92.14371234 35.11340327 93.65314748 35.1139679 95.1625824 C35.11425183 99.21328946 35.10842116 103.26396619 35.10139394 107.31466627 C35.09509242 111.56537689 35.09455127 115.81608841 35.09336853 120.06680298 C35.09027509 128.09514314 35.0820888 136.1234695 35.07201904 144.15180361 C35.0607958 153.30068265 35.05533188 162.44956239 35.05032361 171.59844661 C35.03990427 190.3989722 35.02234377 209.19948498 35 228 C35.94332184 228.30809097 36.88664368 228.61618195 37.85855103 228.93360901 C42.31896457 230.4477335 46.2625286 232.66268341 50.375 234.9375 C51.25623535 235.42476563 52.1374707 235.91203125 53.04541016 236.4140625 C71.7630019 246.93024692 88.55352041 260.14439626 104 275 C104.49129395 275.46937988 104.98258789 275.93875977 105.48876953 276.42236328 C112.21671102 282.87892562 118.25105256 289.66582796 124 297 C124.79019531 297.97324219 125.58039063 298.94648438 126.39453125 299.94921875 C149.60099262 329.07606869 164.83833343 364.27200692 172.54125977 400.54907227 C174.99361678 411.42842506 179.17233597 421.76141197 183.0625 432.1875 C183.87347948 434.37588865 184.68376857 436.56453326 185.4934082 438.75341797 C187.16964571 443.28340245 188.84880771 447.81228567 190.53027344 452.34033203 C193.9090666 461.44425681 197.25815506 470.55905172 200.60446167 479.67495728 C201.70061696 482.66072874 202.79763807 485.64618105 203.89477539 488.6315918 C210.36957933 506.2557098 216.80632466 523.89367123 223.24144745 541.53230286 C229.91345691 559.81995561 236.59648861 578.10344646 243.3125 596.375 C243.67654938 597.36546326 244.04059875 598.35592651 244.41567993 599.37640381 C246.94284006 606.25128408 249.47125497 613.12570256 252 620 C254.89673645 627.87466816 257.79268947 635.74962364 260.6875 643.625 C261.04915253 644.60868561 261.41080505 645.59237122 261.78341675 646.60586548 C266.48114459 659.38584269 271.16075603 672.17233121 275.82421875 684.96484375 C276.32746001 686.3451145 276.83070505 687.72538386 277.33395386 689.10565186 C279.34598201 694.62434896 281.35800048 700.14304929 283.36853027 705.66229248 C290.1769852 724.36350163 290.1769852 724.36350163 297.12890625 743.01171875 C297.57127625 744.18408836 297.57127625 744.18408836 298.02258301 745.38014221 C299.30726342 748.77853292 300.59942437 752.17382151 301.90380859 755.56469727 C302.3261377 756.67256592 302.7484668 757.78043457 303.18359375 758.921875 C303.71811157 760.30777832 303.71811157 760.30777832 304.26342773 761.72167969 C305 764 305 764 305 767 C305.62116699 766.86424561 306.24233398 766.72849121 306.88232422 766.58862305 C347.25152592 757.87380269 390.07535391 754.89743274 431 762 C432.04446289 762.17160645 433.08892578 762.34321289 434.16503906 762.52001953 C477.77234291 769.7835761 518.52618663 785.64988524 556 809 C556.61407715 809.3825293 557.2281543 809.76505859 557.86083984 810.15917969 C566.95556466 815.88965146 575.45459762 822.49334845 584 829 C587.9445975 825.85673705 591.18368489 822.80159196 594.3125 818.8125 C597.27681702 815.10337971 600.29683973 811.50502877 603.5 808 C606.52282421 804.68010514 609.42512161 801.30235888 612.25 797.8125 C616.41084769 792.67305572 620.71734489 787.67673848 625.05932617 782.69091797 C628.59161068 778.63215511 632.09362243 774.55056164 635.5625 770.4375 C636.00287598 769.91679932 636.44325195 769.39609863 636.89697266 768.85961914 C638.77868772 766.63437292 640.65871706 764.40788271 642.52880859 762.17285156 C644.09757166 760.29849793 645.67337398 758.43024115 647.25 756.5625 C647.72123291 755.99523193 648.19246582 755.42796387 648.67797852 754.84350586 C655.36079579 746.95813105 662.39000442 740.98517776 672.95703125 739.6171875 C682.11206034 739.26461899 689.31937084 741.50398754 696.375 747.375 C702.06667806 752.75684881 705.53219351 758.40896885 706.3359375 766.296875 C706.4973546 780.56614631 701.78366933 787.97820366 692.53515625 798.27929688 C689.97715171 801.14647499 687.49354247 804.07681595 685 807 C683.98979864 808.17726812 682.97938259 809.35435205 681.96875 810.53125 C679.13112621 813.84181108 676.31288104 817.16841013 673.5 820.5 C669.70476273 824.99409053 665.8920907 829.47264267 662.0625 833.9375 C661.31746216 834.80628784 661.31746216 834.80628784 660.55737305 835.69262695 C658.00489582 838.66756041 655.44930018 841.6397708 652.890625 844.609375 C647.4834861 850.89124834 642.14067494 857.21104648 636.9140625 863.64453125 C634.63380496 866.4506441 632.32208587 869.22847815 630 872 C632.93921976 875.92865367 635.88320893 879.85313629 638.859375 883.75390625 C661.39083952 913.36503471 678.9593205 945.73463399 691 981 C691.47711426 982.39436279 691.47711426 982.39436279 691.96386719 983.81689453 C704.07131427 1019.84192648 708.31129224 1057.17559841 708 1095 C721.89528082 1098.03077039 735.83558624 1100.74637829 749.82384491 1103.30673218 C752.60440522 1103.81588163 755.38456091 1104.32718821 758.16461182 1104.83911133 C769.70391277 1106.96355098 769.70391277 1106.96355098 781.24804688 1109.06152344 C786.01795358 1109.92292798 790.78490863 1110.79926606 795.55028152 1111.68539429 C797.34404837 1112.01613575 799.13881824 1112.34148969 800.93461227 1112.66104126 C813.65658072 1114.92817092 825.63908116 1117.19306768 834 1128 C839.08748504 1136.28267382 840.62970559 1145.14738254 838.3515625 1154.7265625 C835.3502414 1163.01226092 830.62828514 1168.91796676 822.75 1172.9375 C808.58838054 1179.42457724 793.25302206 1174.6812312 778.63671875 1171.84375 C776.39105072 1171.41672884 774.14518214 1170.99076113 771.89912415 1170.5657959 C766.02657667 1169.4517819 760.15684013 1168.32360095 754.28759766 1167.19232178 C748.28257474 1166.03751751 742.27497079 1164.89630652 736.26757812 1163.75390625 C724.50917148 1161.51580672 712.75369308 1159.26271336 701 1157 C700.51805886 1158.4357701 700.03698435 1159.87183113 699.55627441 1161.30801392 C699.28828285 1162.107689 699.02029129 1162.90736408 698.74417877 1163.73127174 C697.86445893 1166.41321504 697.08820024 1169.11350027 696.34375 1171.8359375 C690.29231538 1193.42479465 682.52500844 1214.33415355 671.97265625 1234.15185547 C670.95310022 1236.0891143 669.97468301 1238.04372087 669 1240.00390625 C656.60805194 1264.59987035 639.52127716 1286.73662251 621 1307 C619.73542969 1308.42119141 619.73542969 1308.42119141 618.4453125 1309.87109375 C611.71650351 1317.40153871 604.55795728 1324.30638958 597 1331 C596.48743652 1331.45729492 595.97487305 1331.91458984 595.44677734 1332.38574219 C575.7814463 1349.83393434 553.39715728 1364.10374952 530 1376 C530.63776976 1379.58163257 531.57761971 1382.87116998 532.8190918 1386.28881836 C533.19481323 1387.32847748 533.57053467 1388.3681366 533.9576416 1389.43930054 C534.57222229 1391.12256943 534.57222229 1391.12256943 535.19921875 1392.83984375 C535.62577759 1394.01664703 536.05233643 1395.19345032 536.49182129 1396.40591431 C537.64695561 1399.59005016 538.8053309 1402.77296816 539.96538925 1405.95531082 C540.93342238 1408.61255528 541.89884502 1411.27074497 542.86427784 1413.92893505 C549.63544334 1432.57132124 556.4603681 1451.19369348 563.33911133 1469.79664612 C567.13593573 1480.06760016 570.91153972 1490.34636133 574.6875 1500.625 C575.06450043 1501.65110382 575.44150085 1502.67720764 575.82992554 1503.73440552 C582.53317938 1521.9813696 589.20946816 1540.23813277 595.87133789 1558.50024414 C599.85445741 1569.41543634 603.85277866 1580.32468952 607.8828125 1591.22265625 C630.88965444 1653.4563982 630.88965444 1653.4563982 633 1670 C633.08991211 1670.65734131 633.17982422 1671.31468262 633.27246094 1671.99194336 C638.41220935 1712.60235763 627.36971168 1754.79231493 602.28515625 1787.19140625 C593.61488171 1797.84769239 593.61488171 1797.84769239 588.328125 1802.19921875 C585.7596704 1804.36683877 583.84352474 1806.18981929 582 1809 C582.04145589 1811.68444453 582.04145589 1811.68444453 582.99975586 1814.45239258 C583.4644075 1816.04284897 583.4644075 1816.04284897 583.93844604 1817.66543579 C584.28875885 1818.76584198 584.63907166 1819.86624817 585 1821 C585.3215506 1822.05150238 585.6431012 1823.10300476 585.97439575 1824.18637085 C587.03643679 1827.59725229 588.14041482 1830.99229734 589.25390625 1834.38671875 C589.6716901 1835.67101939 590.08905176 1836.95545743 590.50602722 1838.24002075 C591.39308166 1840.97072777 592.28234972 1843.70069871 593.17346191 1846.43008423 C595.54910663 1853.70785858 597.90896361 1860.990762 600.26953125 1868.2734375 C600.50964809 1869.01383333 600.74976494 1869.75422916 600.99715805 1870.51706123 C606.72070252 1888.16962667 612.30905105 1905.86377077 617.87329102 1923.56713867 C618.38443199 1925.19172752 618.38443199 1925.19172752 618.90589905 1926.84913635 C619.57731587 1928.98562395 620.24689507 1931.12269001 620.91453552 1933.26036072 C622.71091726 1938.9930268 624.5615504 1944.70242416 626.47851562 1950.39599609 C626.89111633 1951.63596848 627.30371704 1952.87594086 627.7288208 1954.15348816 C628.51749361 1956.51810098 629.31768808 1958.87891775 630.13201904 1961.2348175 C634.43113698 1974.19701264 635.57014074 1986.48409641 629.875 1999.125 C624.99152487 2008.18214284 617.5042678 2014.18832772 608 2018 C597.06402345 2021.07787136 586.30034236 2020.49747636 576.125 2015.3125 C565.42399532 2008.80220669 560.72783413 1999.77195363 555 1989 C553.86148802 1986.88107449 552.72210489 1984.76261692 551.58203125 1982.64453125 C549.01356833 1977.86583038 546.45291716 1973.08306269 543.8984375 1968.296875 C540.26038324 1961.48116792 536.60271562 1954.6761433 532.9375 1947.875 C532.36427002 1946.81104004 531.79104004 1945.74708008 531.20043945 1944.65087891 C530.04501488 1942.5064603 528.88949756 1940.36209167 527.73388672 1938.21777344 C524.82129735 1932.81254563 521.9107577 1927.40621432 519 1922 C517.83334304 1919.83332811 516.66667637 1917.66666144 515.5 1915.5 C508.5 1902.49999999 508.5 1902.49999999 506.74755859 1899.24536133 C505.58914658 1897.09409409 504.43061927 1894.94288894 503.27197266 1892.79174805 C500.55210969 1887.74172353 497.8333741 1882.69110243 495.11883545 1877.63821411 C494.15763489 1875.84915018 493.1960612 1874.0602873 492.234375 1872.27148438 C491.0279031 1870.0270918 489.82213188 1867.78232239 488.6171875 1865.53710938 C486.33152137 1861.28652508 484.04699401 1857.04781015 481.6015625 1852.88671875 C480 1850 480 1850 480 1848 C478.83726563 1848.03480469 477.67453125 1848.06960938 476.4765625 1848.10546875 C436.06953838 1848.94435417 398.18954534 1832.63154763 369 1805 C368.12730469 1804.19175781 367.25460937 1803.38351562 366.35546875 1802.55078125 C351.20761407 1788.05304909 339.90624416 1770.41424558 332.2578125 1750.93359375 C331.91902069 1750.07811447 331.58022888 1749.22263519 331.23117065 1748.3412323 C327.42218893 1738.64753883 323.85618674 1728.86491041 320.30712891 1719.07373047 C318.66060448 1714.53133614 317.00699643 1709.99152907 315.35394287 1705.45150757 C314.49702144 1703.09781564 313.640455 1700.74399443 312.78424072 1698.39004517 C308.91410055 1687.75237563 305.01331653 1677.1261053 301.10467529 1666.50253296 C294.54636085 1648.67688285 288.01383551 1630.84194897 281.5 1613 C275.64311522 1596.95765181 269.77337917 1580.92013877 263.88128662 1564.89068604 C262.76294608 1561.84772576 261.64528446 1558.80451698 260.52783203 1555.76123047 C257.23996013 1546.80826103 253.94884336 1537.85655488 250.6418457 1528.91062927 C249.21934612 1525.06042096 247.80055134 1521.20885391 246.38244629 1517.35702515 C245.71648687 1515.55105505 245.04879193 1513.74572388 244.37927246 1511.94107056 C243.46462055 1509.47532193 242.55585114 1507.00748221 241.6484375 1504.5390625 C241.37754303 1503.81346634 241.10664856 1503.08787018 240.82754517 1502.34028625 C239.75810423 1499.4153376 239 1497.14153724 239 1494 C238.40316406 1494.32871094 237.80632812 1494.65742187 237.19140625 1494.99609375 C235.290827 1496.03816469 233.38672497 1497.07381931 231.48046875 1498.10546875 C229.09602396 1499.40339886 226.72687143 1500.71646629 224.36328125 1502.05078125 C203.50448584 1513.66111252 181.08717521 1521.17389343 158 1527 C157.18748779 1527.21495117 156.37497559 1527.42990234 155.5378418 1527.65136719 C148.37155327 1529.34495833 141.16851436 1529.3041306 133.84838867 1529.26074219 C131.67403845 1529.24993308 129.50049852 1529.26073785 127.32617188 1529.2734375 C125.9296857 1529.27211722 124.53320002 1529.26955755 123.13671875 1529.265625 C121.88592529 1529.26336914 120.63513184 1529.26111328 119.34643555 1529.25878906 C116 1529 116 1529 113.61645508 1527.92089844 C107.38539282 1525.72778779 99.66350292 1528.35713356 93.33984375 1529.63671875 C91.66318733 1529.96763655 89.98642469 1530.29801646 88.30957031 1530.62792969 C87.43546509 1530.80078491 86.56135986 1530.97364014 85.6607666 1531.1517334 C42.81512526 1539.58104533 -0.40429775 1545.31447913 -44 1548 C-45.89733887 1548.13136353 -45.89733887 1548.13136353 -47.83300781 1548.26538086 C-64.296371 1549.31194141 -80.79469651 1549.18733519 -97.28369141 1549.18530273 C-100.73263878 1549.18522216 -104.18145137 1549.19206721 -107.63037109 1549.20581055 C-138.06504198 1549.32502529 -168.39028615 1548.38367382 -198.6875 1545.3125 C-199.50166382 1545.23174225 -200.31582764 1545.1509845 -201.15466309 1545.06777954 C-258.44652473 1539.32786456 -315.67772192 1529.10565729 -371 1513 C-374.47848158 1521.14226747 -377.65759766 1529.3492381 -380.6328125 1537.6875 C-381.29135146 1539.52043847 -381.94989308 1541.35337599 -382.60854053 1543.18627548 C-383.3039235 1545.12302376 -383.99787795 1547.06027846 -384.69143677 1548.99768066 C-386.90160348 1555.1706498 -389.12224229 1561.33985543 -391.34209633 1567.50934601 C-391.84689524 1568.91240129 -392.35159324 1570.31549289 -392.85619164 1571.7186203 C-397.71993796 1585.24311403 -402.62607669 1598.75185061 -407.5625 1612.25 C-407.9442337 1613.29420105 -408.32596741 1614.3384021 -408.7192688 1615.41424561 C-413.19971877 1627.66613615 -417.70107636 1639.91022548 -422.21875 1652.1484375 C-422.65850159 1653.33992905 -423.09825317 1654.53142059 -423.55133057 1655.75901794 C-427.13627242 1665.47172161 -427.13627242 1665.47172161 -428.88757324 1670.21035767 C-433.66754173 1683.14638803 -438.41130133 1696.09347174 -443.046875 1709.08203125 C-443.45215927 1710.21602356 -443.85744354 1711.35001587 -444.27500916 1712.51837158 C-446.18137143 1717.85540521 -448.08014243 1723.19491592 -449.96508789 1728.53955078 C-459.94713168 1756.67431527 -472.27437427 1780.22537787 -493 1802 C-493.59296875 1802.64582031 -494.1859375 1803.29164062 -494.796875 1803.95703125 C-512.4940881 1822.66175896 -538.86753219 1836.64195814 -563.96972656 1841.58496094 C-566.1930731 1842.03946901 -568.40463427 1842.53466993 -570.6171875 1843.0390625 C-571.40673828 1843.21888672 -572.19628906 1843.39871094 -573.00976562 1843.58398438 C-574.54282223 1843.9346505 -576.07540741 1844.28738667 -577.60742188 1844.64257812 C-585.63237068 1846.45886501 -593.29132581 1847.14939965 -601.5 1847.0625 C-602.32242187 1847.05798828 -603.14484375 1847.05347656 -603.9921875 1847.04882812 C-605.99482396 1847.03718489 -607.99742227 1847.01925556 -610 1847 C-610.22300781 1847.79148437 -610.44601562 1848.58296875 -610.67578125 1849.3984375 C-612.39916732 1854.08564091 -614.75596094 1858.27200194 -617.1875 1862.625 C-618.27839886 1864.60098036 -619.36818996 1866.57757259 -620.45703125 1868.5546875 C-621.03404785 1869.60108398 -621.61106445 1870.64748047 -622.20556641 1871.72558594 C-625.30332254 1877.37825332 -628.33764567 1883.06471596 -631.375 1888.75 C-632.65202916 1891.13818915 -633.92950681 1893.52613826 -635.20703125 1895.9140625 C-635.52341553 1896.50556091 -635.8397998 1897.09705933 -636.16577148 1897.70648193 C-641.17884786 1907.07600764 -646.22486887 1916.42783849 -651.26611328 1925.78222656 C-653.59444197 1930.10317448 -655.92142656 1934.42484548 -658.24829102 1938.74658203 C-659.41402753 1940.91168374 -660.57987998 1943.07672304 -661.74584961 1945.24169922 C-665.28442482 1951.81227883 -668.81991324 1958.38450851 -672.35351562 1964.95776367 C-674.10013562 1968.20379049 -675.85051593 1971.4477656 -677.6015625 1974.69140625 C-679.86161049 1978.87876217 -682.10445753 1983.07470116 -684.3359375 1987.27734375 C-685.39044225 1989.24749366 -686.4451215 1991.21755018 -687.5 1993.1875 C-687.96809082 1994.07791992 -688.43618164 1994.96833984 -688.91845703 1995.88574219 C-694.72347822 2006.67214128 -701.92509729 2013.88337088 -713.5625 2018.375 C-726.22990075 2020.67816377 -736.83531879 2020.01038122 -748 2013 C-756.78533216 2006.68072599 -762.05349968 1998.68346359 -764 1988 C-764.82584256 1980.67631929 -764.26667284 1974.13029891 -762.12109375 1967.08203125 C-761.90629868 1966.37306702 -761.6915036 1965.66410278 -761.47019958 1964.93365479 C-757.54770844 1952.10761429 -753.40467071 1939.34733136 -749.30823517 1926.57600403 C-748.04613257 1922.63941119 -746.78654211 1918.7020149 -745.52685547 1914.76464844 C-743.69021131 1909.02437369 -741.85309705 1903.28425 -740.01524734 1897.54436111 C-735.27838916 1882.74992849 -730.55002122 1867.95278841 -725.82811832 1853.1535759 C-724.36937792 1848.58171259 -722.90942906 1844.01023777 -721.44848156 1839.43907928 C-720.54377813 1836.60747992 -719.640129 1833.77554495 -718.73678398 1830.94351196 C-718.31825841 1829.63211451 -717.89930946 1828.32085209 -717.47990608 1827.00973511 C-716.90813091 1825.22203056 -716.33805483 1823.43378285 -715.76806641 1821.64550781 C-715.44883209 1820.64577942 -715.12959778 1819.64605103 -714.8006897 1818.61602783 C-714.12871637 1816.42054445 -713.5281815 1814.23364949 -713 1812 C-713.46148438 1811.61070313 -713.92296875 1811.22140625 -714.3984375 1810.8203125 C-745.21370725 1784.38982421 -763.08251447 1747.22131493 -766.7890625 1706.85644531 C-767.74097644 1693.96594411 -767.39988088 1681.14416355 -765.875 1668.3125 C-765.7826709 1667.48435791 -765.6903418 1666.65621582 -765.59521484 1665.80297852 C-763.23413473 1648.65004172 -756.7915828 1631.95940182 -750.9375 1615.75 C-750.24695379 1613.82260981 -749.55669623 1611.89511617 -748.86669922 1609.9675293 C-742.3360834 1591.76906041 -735.62734119 1573.63546953 -728.92163086 1555.50097656 C-723.20279312 1540.02817781 -717.56433484 1524.52898734 -712 1509 C-705.16730127 1489.93391454 -698.19977353 1470.92029305 -691.17788696 1451.92312622 C-681.9691618 1427.00224477 -672.95321866 1402.01366569 -664 1377 C-666.35352659 1374.57082319 -668.65555868 1372.39466125 -671.44140625 1370.4765625 C-672.42596802 1369.79194946 -672.42596802 1369.79194946 -673.43041992 1369.09350586 C-674.13400635 1368.60889893 -674.83759277 1368.12429199 -675.5625 1367.625 C-696.88057315 1352.74982522 -717.36445151 1336.92906828 -737.16210938 1320.0859375 C-740.59040745 1317.17412087 -744.05974315 1314.32236523 -747.5625 1311.5 C-752.55168418 1307.44174232 -757.27670615 1303.15484434 -761.98046875 1298.7734375 C-764.19378639 1296.7202222 -766.45154838 1294.72718825 -768.73193359 1292.7487793 C-781.54744151 1281.55010488 -793.61720392 1269.54475904 -805.63061523 1257.49975586 C-808.08787782 1255.03706613 -810.55053317 1252.57985798 -813.01367188 1250.12304688 C-814.60448787 1248.531571 -816.19499413 1246.93978546 -817.78515625 1245.34765625 C-818.50816422 1244.62667252 -819.23117218 1243.90568878 -819.97608948 1243.16285706 C-823.96316128 1239.15753378 -827.78245297 1235.06006396 -831.46534729 1230.77276611 C-833.85963631 1228.00698437 -836.37257837 1225.35503681 -838.875 1222.6875 C-843.41348524 1217.81414451 -847.69348797 1212.79696023 -851.86328125 1207.6015625 C-853.95882494 1205.05013271 -856.13963155 1202.61673227 -858.375 1200.1875 C-862.35683587 1195.81299174 -866.01742083 1191.25470925 -869.63891602 1186.58349609 C-872.60045484 1182.76685432 -875.61959829 1179.00788283 -878.69238281 1175.28027344 C-885.87521191 1166.55610187 -892.62255204 1157.55446114 -899.25488281 1148.40673828 C-900.99576366 1146.00584245 -902.74351267 1143.61006679 -904.4921875 1141.21484375 C-910.52476453 1132.93136951 -916.38035446 1124.57080748 -922 1116 C-922.76022497 1114.86618449 -923.52202271 1113.73342239 -924.28515625 1112.6015625 C-954.7663871 1067.35082316 -954.7663871 1067.35082316 -961.75 1041.375 C-962.04825684 1040.26644653 -962.04825684 1040.26644653 -962.35253906 1039.13549805 C-971.29272548 1004.00731273 -965.91683 968.19392943 -947.59765625 937.15234375 C-943.85504849 931.04877776 -939.66082326 925.43677257 -935 920 C-934.53867676 919.46036621 -934.07735352 918.92073242 -933.60205078 918.36474609 C-909.82062269 890.89490146 -877.00545027 873.14363575 -841 868 C-840.15050781 867.86980469 -839.30101562 867.73960937 -838.42578125 867.60546875 C-805.27511699 863.38424665 -769.68834015 871.618469 -742.6875 891.4375 C-725.19916612 905.13318316 -713.16170084 920.75513424 -701.8125 939.5625 C-688.18671831 962.11905577 -672.50015623 983.46997267 -656 1004 C-655.25492188 1004.928125 -654.50984375 1005.85625 -653.7421875 1006.8125 C-645.56502807 1016.89473242 -637.12388946 1026.7811805 -628.3840332 1036.38037109 C-626.81594462 1038.10342183 -625.25256581 1039.83077263 -623.69433594 1041.56274414 C-616.61404514 1049.37970863 -609.26135104 1056.89311696 -601.79223633 1064.33813477 C-599.80107223 1066.32389676 -597.81536779 1068.3150074 -595.83007812 1070.30664062 C-589.7215213 1076.41839133 -583.60260129 1082.41771758 -577 1088 C-574.45653952 1090.31935137 -571.9225945 1092.64826486 -569.39453125 1094.984375 C-567.04415595 1096.96283121 -564.67475926 1098.49871416 -562 1100 C-561.91508301 1099.23284668 -561.83016602 1098.46569336 -561.74267578 1097.67529297 C-560.72446892 1092.63647441 -558.9253406 1087.99901868 -557.1171875 1083.1953125 C-556.71505539 1082.11275681 -556.31292328 1081.03020111 -555.89860535 1079.9148407 C-555.02271196 1077.55754461 -554.14456173 1075.20108615 -553.26443481 1072.84536743 C-550.8681061 1066.42892873 -548.4903193 1060.00563652 -546.11328125 1053.58203125 C-545.86484152 1052.91111891 -545.61640179 1052.24020657 -545.36043358 1051.54896355 C-539.73784752 1036.3596302 -534.25896042 1021.11960054 -528.79956055 1005.8710022 C-526.61181789 999.76095725 -524.42175873 993.65174231 -522.23046875 987.54296875 C-521.998829 986.89717236 -521.76718925 986.25137596 -521.52853012 985.58600998 C-517.43896545 974.18834503 -513.28239948 962.81701217 -509.07354736 951.46295166 C-503.6146315 936.73335136 -498.27364832 921.96196367 -492.9375 907.1875 C-485.90688762 887.72245558 -478.80360361 868.28608096 -471.625 848.875 C-464.07465404 828.4562553 -456.65511156 807.99409414 -449.3125 787.5 C-442.2170694 767.69581706 -435.06706047 747.91429493 -427.78765869 728.17675781 C-421.6896964 711.64093142 -415.67390818 695.07651978 -409.6875 678.5 C-402.74036782 659.26399303 -395.71872437 640.05740948 -388.625 620.875 C-380.88709287 599.94940355 -373.29464808 578.97527985 -365.77350998 557.97114563 C-358.2539767 536.97276823 -350.62136901 516.0205656 -342.88418579 495.10116577 C-335.83516878 476.03889233 -328.89482521 456.93985002 -322.03393555 437.80908203 C-321.69159882 436.8545816 -321.34926208 435.90008118 -320.99655151 434.91665649 C-320.32551751 433.04463386 -319.6551153 431.17238463 -318.98538208 429.29989624 C-317.28537645 424.55314363 -315.56744164 419.81388361 -313.82104492 415.08398438 C-313.46234818 414.10926682 -313.10365143 413.13454926 -312.73408508 412.1302948 C-312.05883469 410.29822334 -311.38003472 408.46745386 -310.69670105 406.63838196 C-308.42485376 400.46629609 -306.60290723 394.2356177 -304.9375 387.875 C-297.9677319 361.60473645 -287.44281349 336.48468586 -272 314 C-271.60248535 313.41009277 -271.2049707 312.82018555 -270.79541016 312.21240234 C-264.50591692 302.9110391 -257.47891392 294.36488482 -250 286 C-249.22124512 285.12649902 -249.22124512 285.12649902 -248.42675781 284.23535156 C-242.61397573 277.74507226 -236.71960456 271.56524211 -230 266 C-229.07058594 265.18273437 -228.14117188 264.36546875 -227.18359375 263.5234375 C-209.97885263 248.45343367 -190.51762414 236.93710716 -170 227 C-168.66587183 226.33492539 -167.33235048 225.66862876 -166 225 C-165.99853344 224.19899242 -165.99706688 223.39798485 -165.99555588 222.57270432 C-165.95834946 202.99608639 -165.89915329 183.41964486 -165.81609726 163.84316635 C-165.77644935 154.3757477 -165.74398502 144.90841045 -165.72900391 135.44091797 C-165.71591296 127.17985465 -165.68876104 118.91897153 -165.64538693 110.65800977 C-165.62293779 106.29220479 -165.60707923 101.92662067 -165.60811615 97.56075287 C-165.60738074 63.0006804 -162.23131774 31.64020496 -136.83203125 5.796875 C-135.43017578 4.41242187 -135.43017578 4.41242187 -134 3 C-133.32324219 2.32453125 -132.64648438 1.6490625 -131.94921875 0.953125 C-118.28480974 -11.80422474 -100.29393365 -19.84587351 -82 -23 C-81.26136719 -23.13019531 -80.52273438 -23.26039062 -79.76171875 -23.39453125 C-51.03491491 -27.45198942 -21.88548027 -18.94783191 0 0 Z M-61.23046875 694.12109375 C-62.03291016 694.16943359 -62.83535156 694.21777344 -63.66210938 694.26757812 C-64.49548828 694.32365234 -65.32886719 694.37972656 -66.1875 694.4375 C-67.4549707 694.51581055 -67.4549707 694.51581055 -68.74804688 694.59570312 C-70.83236299 694.72523689 -72.91623182 694.86193177 -75 695 C-77.61360899 701.89582589 -80.10386442 708.83323461 -82.5859375 715.77734375 C-83.51457634 718.37123621 -84.44382365 720.96491059 -85.37304688 723.55859375 C-85.61532957 724.23499373 -85.85761227 724.91139372 -86.10723686 725.60829067 C-94.46682185 748.94487501 -102.89472404 772.25264353 -111.5 795.5 C-118.94932527 815.62610777 -126.26570537 835.79593407 -133.5 856 C-141.15031106 877.36592399 -148.90727211 898.68812621 -156.78494263 919.97158813 C-163.9494539 939.33687419 -170.972565 958.74978545 -177.9375 978.1875 C-184.19950166 995.66261381 -190.47419358 1013.13103413 -196.92645264 1030.53704834 C-202.3853685 1045.26664864 -207.72635168 1060.03803633 -213.0625 1074.8125 C-220.09311208 1094.27754359 -227.1962694 1113.71396635 -234.375 1133.125 C-243.15117416 1156.85707543 -251.74626066 1180.65124973 -260.27490234 1204.47314453 C-260.73962986 1205.77070264 -261.20436165 1207.06825923 -261.6690979 1208.36581421 C-262.55915688 1210.8509655 -263.4479175 1213.33656896 -264.33602905 1215.82241821 C-266.26179133 1221.20255277 -268.20358019 1226.57439146 -270.21582031 1231.92285156 C-270.54836823 1232.80889069 -270.88091614 1233.69492981 -271.22354126 1234.6078186 C-271.82720022 1236.20838942 -272.43640555 1237.80688562 -273.05258179 1239.40267944 C-274.3581414 1242.86114858 -275 1245.24741575 -275 1249 C-222.07687952 1261.30376782 -169.40351226 1268.7369139 -115 1270 C-114.07993164 1270.02336426 -113.15986328 1270.04672852 -112.21191406 1270.07080078 C-32.05801893 1271.8549971 49.0175359 1257.57920009 140 1226 C137.78063996 1218.18878179 135.10984147 1210.5842454 132.30859375 1202.96484375 C131.84650119 1201.70157668 131.3846598 1200.4382177 130.92304993 1199.17477417 C129.68785267 1195.79625602 128.44907977 1192.4190595 127.20957947 1189.04211807 C125.90553778 1185.48741961 124.60485525 1181.9314922 123.30371094 1178.37573242 C120.20701946 1169.91548617 117.10433437 1161.45744433 114 1153 C113.56786194 1151.82256226 113.13572388 1150.64512451 112.69049072 1149.43200684 C109.31966451 1140.24853831 105.94661183 1131.0658895 102.57006836 1121.88452148 C97.19368889 1107.26351768 91.84237242 1092.63346079 86.5 1078 C80.35193233 1061.15979724 74.18679208 1044.32601489 68 1027.5 C61.41144106 1009.581313 54.84958623 991.65302483 48.30224609 973.71923828 C42.55301746 957.97277896 36.78502495 942.23334205 31 926.5 C24.81320779 909.67398475 18.64820605 892.84015245 12.5 876 C4.47282969 854.01458045 -3.58739727 832.04145645 -11.66426086 810.07424927 C-14.60973524 802.06296204 -17.55261469 794.05072428 -20.49362183 786.03779602 C-22.32876572 781.03837773 -24.16562432 776.03960328 -26.00634766 771.04223633 C-29.52825002 761.47690813 -33.03885612 751.907843 -36.50750828 742.32305908 C-38.43483455 736.99755061 -40.36948073 731.67473808 -42.3087759 726.35357666 C-43.48846678 723.11506172 -44.66372944 719.87507832 -45.82901001 716.63134766 C-47.1224173 713.03097141 -48.43356464 709.43720232 -49.74609375 705.84375 C-50.32612656 704.21475769 -50.32612656 704.21475769 -50.9178772 702.55285645 C-51.28069794 701.56797241 -51.64351868 700.58308838 -52.01733398 699.56835938 C-52.32944321 698.70577515 -52.64155243 697.84319092 -52.96311951 696.95446777 C-54.79788219 693.49603205 -57.73965123 693.89827561 -61.23046875 694.12109375 Z " fill="#3478EA" transform="translate(1087,27)"/>
<path d="M0 0 C1.32375684 4.36318021 0.46162194 8.11140423 -0.375 12.5 C-11.64687436 72.40792485 4.17320385 137.76655379 38.2265625 187.8125 C44.90906856 197.37348581 52.23286539 206.30814232 60 215 C60.89747022 216.020539 61.79461459 217.04136467 62.69140625 218.0625 C67.50466738 223.47098884 72.44420232 228.3701686 78 233 C78.92039062 233.80824219 79.84078125 234.61648438 80.7890625 235.44921875 C123.91869662 273.17650798 176.60767905 290.7243668 233 295 C231.068889 303.39387941 228.58921746 311.42632932 225.6328125 319.51171875 C224.99290627 321.28320786 224.99290627 321.28320786 224.34007263 323.09048462 C223.18247326 326.29065305 222.01952961 329.48877403 220.85387039 332.68600845 C219.86652059 335.39728922 218.88380171 338.11023919 217.90102482 340.8231802 C210.76756095 360.51275353 203.53446344 380.16535437 196.27008057 399.80697632 C188.9851614 419.50818279 181.85193212 439.2605767 174.7710762 459.03570938 C167.36316387 479.72275039 159.84249072 500.36420337 152.21505737 520.97158813 C145.0505461 540.33687419 138.027435 559.74978545 131.0625 579.1875 C124.80049834 596.66261381 118.52580642 614.13103413 112.07354736 631.53704834 C106.6146315 646.26664864 101.27364832 661.03803633 95.9375 675.8125 C88.90688792 695.27754359 81.8037306 714.71396635 74.625 734.125 C65.84882721 757.85707175 57.2535301 781.65117731 48.72509766 805.47314453 C48.03317722 807.40552973 47.34121275 809.33789913 46.64918137 811.2702446 C45.9858868 813.12240071 45.32273062 814.97460637 44.65957642 816.82681274 C41.85705604 824.64289729 39.02008623 832.4452679 36.12319946 840.22689819 C35.05545453 843.10004044 34.00956756 845.97061894 33.06040955 848.88539124 C32.05482395 851.83897244 30.91243135 854.66904935 29.68041992 857.53442383 C26.92134983 864.09321224 24.49517481 870.74577349 22.11328125 877.44921875 C21.65452169 878.73252666 21.19543156 880.01571644 20.73603821 881.29879761 C19.76338701 884.01676352 18.79240633 886.73531728 17.82281494 889.45437622 C15.24825441 896.67307715 12.66128935 903.88733755 10.07421875 911.1015625 C9.81454819 911.82591806 9.55487762 912.55027363 9.28733826 913.29657936 C4.46587287 926.74294878 -0.43136031 940.16054357 -5.375 953.5625 C-11.42997819 969.98180545 -17.41971617 986.42287296 -23.35275269 1002.8866272 C-27.55787319 1014.55041402 -31.79993633 1026.19954985 -36.1015625 1037.828125 C-36.53734116 1039.00616699 -36.97311981 1040.18420898 -37.42210388 1041.39794922 C-38.31214595 1043.80348488 -39.20223722 1046.20900234 -40.09237671 1048.61450195 C-47.5957001 1068.89392 -54.9472665 1089.21610012 -62.09396362 1109.62387085 C-68.49278381 1127.88239071 -75.12715898 1146.04743113 -81.84326172 1164.19140625 C-87.97805976 1180.76541802 -94.03931489 1197.36258014 -100 1214 C-106.83467957 1233.07233192 -113.79969686 1252.09399796 -120.83016968 1271.09500122 C-125.63119854 1284.07192358 -130.40044748 1297.05804794 -135.05078125 1310.08984375 C-135.45581879 1311.22334259 -135.86085632 1312.35684143 -136.27816772 1313.52468872 C-138.18329771 1318.8594865 -140.08072233 1324.19680952 -141.96484375 1329.5390625 C-151.94723764 1357.67397264 -164.27416035 1381.22515313 -185 1403 C-185.59296875 1403.64582031 -186.1859375 1404.29164062 -186.796875 1404.95703125 C-204.4940881 1423.66175896 -230.86753219 1437.64195814 -255.96972656 1442.58496094 C-258.1930731 1443.03946901 -260.40463427 1443.53466993 -262.6171875 1444.0390625 C-263.40673828 1444.21888672 -264.19628906 1444.39871094 -265.00976562 1444.58398438 C-266.54282223 1444.9346505 -268.07540741 1445.28738667 -269.60742188 1445.64257812 C-277.63237068 1447.45886501 -285.29132581 1448.14939965 -293.5 1448.0625 C-294.32242187 1448.05798828 -295.14484375 1448.05347656 -295.9921875 1448.04882812 C-297.99482396 1448.03718489 -299.99742227 1448.01925556 -302 1448 C-302.22300781 1448.79148437 -302.44601562 1449.58296875 -302.67578125 1450.3984375 C-304.39916732 1455.08564091 -306.75596094 1459.27200194 -309.1875 1463.625 C-310.27839886 1465.60098036 -311.36818996 1467.57757259 -312.45703125 1469.5546875 C-313.03404785 1470.60108398 -313.61106445 1471.64748047 -314.20556641 1472.72558594 C-317.30332254 1478.37825332 -320.33764567 1484.06471596 -323.375 1489.75 C-324.65202916 1492.13818915 -325.92950681 1494.52613826 -327.20703125 1496.9140625 C-327.52341553 1497.50556091 -327.8397998 1498.09705933 -328.16577148 1498.70648193 C-333.17884786 1508.07600764 -338.22486887 1517.42783849 -343.26611328 1526.78222656 C-345.59444197 1531.10317448 -347.92142656 1535.42484548 -350.24829102 1539.74658203 C-351.41402753 1541.91168374 -352.57987998 1544.07672304 -353.74584961 1546.24169922 C-357.28442482 1552.81227883 -360.81991324 1559.38450851 -364.35351562 1565.95776367 C-366.10013562 1569.20379049 -367.85051593 1572.4477656 -369.6015625 1575.69140625 C-371.86161049 1579.87876217 -374.10445753 1584.07470116 -376.3359375 1588.27734375 C-377.39044225 1590.24749366 -378.4451215 1592.21755018 -379.5 1594.1875 C-379.96809082 1595.07791992 -380.43618164 1595.96833984 -380.91845703 1596.88574219 C-386.72347822 1607.67214128 -393.92509729 1614.88337088 -405.5625 1619.375 C-418.22990075 1621.67816377 -428.83531879 1621.01038122 -440 1614 C-448.78533216 1607.68072599 -454.05349968 1599.68346359 -456 1589 C-456.82584256 1581.67631929 -456.26667284 1575.13029891 -454.12109375 1568.08203125 C-453.90629868 1567.37306702 -453.6915036 1566.66410278 -453.47019958 1565.93365479 C-449.54770844 1553.10761429 -445.40467071 1540.34733136 -441.30823517 1527.57600403 C-440.04613257 1523.63941119 -438.78654211 1519.7020149 -437.52685547 1515.76464844 C-435.69021131 1510.02437369 -433.85309705 1504.28425 -432.01524734 1498.54436111 C-427.27838916 1483.74992849 -422.55002122 1468.95278841 -417.82811832 1454.1535759 C-416.36937792 1449.58171259 -414.90942906 1445.01023777 -413.44848156 1440.43907928 C-412.54377813 1437.60747992 -411.640129 1434.77554495 -410.73678398 1431.94351196 C-410.31825841 1430.63211451 -409.89930946 1429.32085209 -409.47990608 1428.00973511 C-408.90813091 1426.22203056 -408.33805483 1424.43378285 -407.76806641 1422.64550781 C-407.44883209 1421.64577942 -407.12959778 1420.64605103 -406.8006897 1419.61602783 C-406.12871637 1417.42054445 -405.5281815 1415.23364949 -405 1413 C-405.46148437 1412.61070313 -405.92296875 1412.22140625 -406.3984375 1411.8203125 C-437.21370725 1385.38982421 -455.08251447 1348.22131493 -458.7890625 1307.85644531 C-459.74097644 1294.96594411 -459.39988088 1282.14416355 -457.875 1269.3125 C-457.7826709 1268.48435791 -457.6903418 1267.65621582 -457.59521484 1266.80297852 C-455.23413473 1249.65004172 -448.7915828 1232.95940182 -442.9375 1216.75 C-442.24695379 1214.82260981 -441.55669623 1212.89511617 -440.86669922 1210.9675293 C-434.3360834 1192.76906041 -427.62734119 1174.63546953 -420.92163086 1156.50097656 C-415.20279312 1141.02817781 -409.56433484 1125.52898734 -404 1110 C-397.16730127 1090.93391454 -390.19977353 1071.92029305 -383.17788696 1052.92312622 C-373.9691618 1028.00224477 -364.95321866 1003.01366569 -356 978 C-358.35352659 975.57082319 -360.65555868 973.39466125 -363.44140625 971.4765625 C-364.09778076 971.02015381 -364.75415527 970.56374512 -365.43041992 970.09350586 C-366.13400635 969.60889893 -366.83759277 969.12429199 -367.5625 968.625 C-388.88057315 953.74982522 -409.36445151 937.92906828 -429.16210938 921.0859375 C-432.59040745 918.17412087 -436.05974315 915.32236523 -439.5625 912.5 C-444.55168418 908.44174232 -449.27670615 904.15484434 -453.98046875 899.7734375 C-456.19378639 897.7202222 -458.45154838 895.72718825 -460.73193359 893.7487793 C-473.54744151 882.55010488 -485.61720392 870.54475904 -497.63061523 858.49975586 C-500.08787782 856.03706613 -502.55053317 853.57985798 -505.01367188 851.12304688 C-506.60448787 849.531571 -508.19499413 847.93978546 -509.78515625 846.34765625 C-510.50816422 845.62667252 -511.23117218 844.90568878 -511.97608948 844.16285706 C-515.96316128 840.15753378 -519.78245297 836.06006396 -523.46534729 831.77276611 C-525.85963631 829.00698437 -528.37257837 826.35503681 -530.875 823.6875 C-535.41348524 818.81414451 -539.69348797 813.79696023 -543.86328125 808.6015625 C-545.95882494 806.05013271 -548.13963155 803.61673227 -550.375 801.1875 C-554.35683587 796.81299174 -558.01742083 792.25470925 -561.63891602 787.58349609 C-564.60045484 783.76685432 -567.61959829 780.00788283 -570.69238281 776.28027344 C-577.87521191 767.55610187 -584.62255204 758.55446114 -591.25488281 749.40673828 C-592.99576366 747.00584245 -594.74351267 744.61006679 -596.4921875 742.21484375 C-602.52476453 733.93136951 -608.38035446 725.57080748 -614 717 C-614.76022497 715.86618449 -615.52202271 714.73342239 -616.28515625 713.6015625 C-646.7663871 668.35082316 -646.7663871 668.35082316 -653.75 642.375 C-653.94883789 641.63596436 -654.14767578 640.89692871 -654.35253906 640.13549805 C-663.29272548 605.00731273 -657.91683 569.19392943 -639.59765625 538.15234375 C-635.85504849 532.04877776 -631.66082326 526.43677257 -627 521 C-626.53867676 520.46036621 -626.07735352 519.92073242 -625.60205078 519.36474609 C-601.82062269 491.89490146 -569.00545027 474.14363575 -533 469 C-531.72576172 468.80470703 -531.72576172 468.80470703 -530.42578125 468.60546875 C-497.27511699 464.38424665 -461.68834015 472.618469 -434.6875 492.4375 C-417.19916612 506.13318316 -405.16170084 521.75513424 -393.8125 540.5625 C-380.18671831 563.11905577 -364.50015623 584.46997267 -348 605 C-347.25492187 605.928125 -346.50984375 606.85625 -345.7421875 607.8125 C-337.56502807 617.89473242 -329.12388946 627.7811805 -320.3840332 637.38037109 C-318.81594462 639.10342183 -317.25256581 640.83077263 -315.69433594 642.56274414 C-308.61404514 650.37970863 -301.26135104 657.89311696 -293.79223633 665.33813477 C-291.80107223 667.32389676 -289.81536779 669.3150074 -287.83007812 671.30664062 C-281.7215213 677.41839133 -275.60260129 683.41771758 -269 689 C-266.45653952 691.31935137 -263.9225945 693.64826486 -261.39453125 695.984375 C-259.04415595 697.96283121 -256.67475926 699.49871416 -254 701 C-253.91508301 700.23284668 -253.83016602 699.46569336 -253.74267578 698.67529297 C-252.72446892 693.63647441 -250.9253406 688.99901868 -249.1171875 684.1953125 C-248.71505539 683.11275681 -248.31292328 682.03020111 -247.89860535 680.9148407 C-247.02271196 678.55754461 -246.14456173 676.20108615 -245.26443481 673.84536743 C-242.8681061 667.42892873 -240.4903193 661.00563652 -238.11328125 654.58203125 C-237.86484152 653.91111891 -237.61640179 653.24020657 -237.36043358 652.54896355 C-231.73784752 637.3596302 -226.25896042 622.11960054 -220.79956055 606.8710022 C-218.61181789 600.76095725 -216.42175873 594.65174231 -214.23046875 588.54296875 C-213.998829 587.89717236 -213.76718925 587.25137596 -213.52853012 586.58600998 C-209.43896545 575.18834503 -205.28239948 563.81701217 -201.07354736 552.46295166 C-195.6146315 537.73335136 -190.27364832 522.96196367 -184.9375 508.1875 C-177.90688762 488.72245558 -170.80360361 469.28608096 -163.625 449.875 C-156.07465404 429.4562553 -148.65511156 408.99409414 -141.3125 388.5 C-134.2170694 368.69581706 -127.06706047 348.91429493 -119.78765869 329.17675781 C-113.6896964 312.64093142 -107.67390818 296.07651978 -101.6875 279.5 C-94.74036782 260.26399303 -87.71872437 241.05740948 -80.625 221.875 C-72.88709287 200.94940355 -65.29464808 179.97527985 -57.77350998 158.97114563 C-50.2539767 137.97276823 -42.62136901 117.0205656 -34.88418579 96.10116577 C-26.79304051 74.22072151 -18.86279424 52.28492321 -10.99211121 30.32434082 C-7.36178187 20.20398972 -3.68355903 10.10107708 0 0 Z " fill="#498AF5" transform="translate(779,426)"/>
<path d="M0 0 C0.74765625 0.60328125 1.4953125 1.2065625 2.265625 1.828125 C20.35847955 16.88441655 32.04729905 40.69310246 34.28800106 63.99503517 C34.95891115 72.88552581 35.1373264 81.72175877 35.11352539 90.63427734 C35.11324248 92.14371234 35.11340327 93.65314748 35.1139679 95.1625824 C35.11425183 99.21328946 35.10842116 103.26396619 35.10139394 107.31466627 C35.09509242 111.56537689 35.09455127 115.81608841 35.09336853 120.06680298 C35.09027509 128.09514314 35.0820888 136.1234695 35.07201904 144.15180361 C35.0607958 153.30068265 35.05533188 162.44956239 35.05032361 171.59844661 C35.03990427 190.3989722 35.02234377 209.19948498 35 228 C35.94332184 228.30809097 36.88664368 228.61618195 37.85855103 228.93360901 C42.31896457 230.4477335 46.2625286 232.66268341 50.375 234.9375 C51.25623535 235.42476563 52.1374707 235.91203125 53.04541016 236.4140625 C71.7630019 246.93024692 88.55352041 260.14439626 104 275 C104.73694092 275.70406982 104.73694092 275.70406982 105.48876953 276.42236328 C112.21671102 282.87892562 118.25105256 289.66582796 124 297 C124.79019531 297.97324219 125.58039063 298.94648438 126.39453125 299.94921875 C165.33875895 348.82882423 182.26680048 413.38850951 176.18017578 475.21411133 C172.97934279 503.27559739 165.75522283 530.72086668 153 556 C151.63710605 558.9878829 150.31909475 561.99246397 149 565 C148.34 565 147.68 565 147 565 C146.85304688 565.80050781 146.85304688 565.80050781 146.703125 566.6171875 C138.10740306 595.74713408 105.30749422 626.45717663 81.69335938 643.74658203 C79.97404588 645.01921114 78.29101316 646.33043746 76.609375 647.65234375 C57.4635428 662.49189976 35.60385394 672.63594674 13 681 C11.9171875 681.41121094 10.834375 681.82242188 9.71875 682.24609375 C-11.42013431 690.07055942 -34.4538096 694.35505534 -57 695 C-58.23621094 695.0515625 -59.47242188 695.103125 -60.74609375 695.15625 C-80.93021817 695.73459167 -102.40471868 693.75703895 -121.92529297 688.54589844 C-124.13133729 687.96544244 -126.34618109 687.43751126 -128.56640625 686.9140625 C-168.20782296 677.34615176 -205.20586001 656.84956641 -234.4284668 628.47460938 C-236.13685937 626.87158139 -237.90231745 625.35598676 -239.69140625 623.84375 C-242.04175466 621.85006421 -244.19765149 619.86329346 -246.1875 617.5 C-248.31443081 614.98463193 -250.45241247 612.49561673 -252.65234375 610.04296875 C-272.05784109 588.28213527 -286.12418758 562.92627788 -297 536 C-297.75216797 534.17662109 -297.75216797 534.17662109 -298.51953125 532.31640625 C-312.61354502 495.76145624 -315.77039648 452.51896454 -310 414 C-309.80664062 412.65977783 -309.80664062 412.65977783 -309.609375 411.29248047 C-307.56729208 397.45405972 -304.47094142 384.25108479 -300 371 C-299.78150391 370.33548828 -299.56300781 369.67097656 -299.33789062 368.98632812 C-292.89630027 349.62191651 -283.50601649 330.8361461 -272 314 C-271.60103516 313.40719238 -271.20207031 312.81438477 -270.79101562 312.20361328 C-264.50293589 302.90565964 -257.47646639 294.36214735 -250 286 C-249.48083008 285.41766602 -248.96166016 284.83533203 -248.42675781 284.23535156 C-242.61397573 277.74507226 -236.71960456 271.56524211 -230 266 C-229.07058594 265.18273437 -228.14117188 264.36546875 -227.18359375 263.5234375 C-209.97885263 248.45343367 -190.51762414 236.93710716 -170 227 C-168.66587183 226.33492539 -167.33235048 225.66862876 -166 225 C-165.99853344 224.19899242 -165.99706688 223.39798485 -165.99555588 222.57270432 C-165.95834946 202.99608639 -165.89915329 183.41964486 -165.81609726 163.84316635 C-165.77644935 154.3757477 -165.74398502 144.90841045 -165.72900391 135.44091797 C-165.71591296 127.17985465 -165.68876104 118.91897153 -165.64538693 110.65800977 C-165.62293779 106.29220479 -165.60707923 101.92662067 -165.60811615 97.56075287 C-165.60738074 63.0006804 -162.23131774 31.64020496 -136.83203125 5.796875 C-135.43017578 4.41242187 -135.43017578 4.41242187 -134 3 C-133.32324219 2.32453125 -132.64648438 1.6490625 -131.94921875 0.953125 C-118.28480974 -11.80422474 -100.29393365 -19.84587351 -82 -23 C-81.26136719 -23.13019531 -80.52273438 -23.26039062 -79.76171875 -23.39453125 C-51.03491491 -27.45198942 -21.88548027 -18.94783191 0 0 Z " fill="#202124" transform="translate(1087,27)"/>
<path d="M0 0 C6.98732405 4.99267272 11.62481455 10.65665789 14 19 C15.05944802 29.39737364 14.08924925 37.62894178 7.70703125 46.01171875 C5.38977696 48.83386652 2.97438419 51.5624586 0.53515625 54.27929688 C-2.02284829 57.14647499 -4.50645753 60.07681595 -7 63 C-8.01020136 64.17726812 -9.02061741 65.35435205 -10.03125 66.53125 C-12.86887379 69.84181108 -15.68711896 73.16841013 -18.5 76.5 C-22.29523727 80.99409053 -26.1079093 85.47264267 -29.9375 89.9375 C-30.43419189 90.51669189 -30.93088379 91.09588379 -31.44262695 91.69262695 C-33.99510418 94.66756041 -36.55069982 97.6397708 -39.109375 100.609375 C-44.5165139 106.89124834 -49.85932506 113.21104648 -55.0859375 119.64453125 C-57.36619504 122.4506441 -59.67791413 125.22847815 -62 128 C-59.06078024 131.92865367 -56.11679107 135.85313629 -53.140625 139.75390625 C-30.60916048 169.36503471 -13.0406795 201.73463399 -1 237 C-0.68192383 237.9295752 -0.36384766 238.85915039 -0.03613281 239.81689453 C12.07131427 275.84192648 16.31129224 313.17559841 16 351 C29.89528082 354.03077039 43.83558624 356.74637829 57.82384491 359.30673218 C60.60440522 359.81588163 63.38456091 360.32718821 66.16461182 360.83911133 C77.70391277 362.96355098 77.70391277 362.96355098 89.24804688 365.06152344 C94.01795358 365.92292798 98.78490863 366.79926606 103.55028152 367.68539429 C105.34404837 368.01613575 107.13881824 368.34148969 108.93461227 368.66104126 C121.65658072 370.92817092 133.63908116 373.19306768 142 384 C147.08748504 392.28267382 148.62970559 401.14738254 146.3515625 410.7265625 C143.3502414 419.01226092 138.62828514 424.91796676 130.75 428.9375 C116.58838054 435.42457724 101.25302206 430.6812312 86.63671875 427.84375 C84.39105072 427.41672884 82.14518214 426.99076113 79.89912415 426.5657959 C74.02657667 425.4517819 68.15684013 424.32360095 62.28759766 423.19232178 C56.28257474 422.03751751 50.27497079 420.89630652 44.26757812 419.75390625 C32.50917148 417.51580672 20.75369308 415.26271336 9 413 C8.51805886 414.4357701 8.03698435 415.87183113 7.55627441 417.30801392 C7.28828285 418.107689 7.02029129 418.90736408 6.74417877 419.73127174 C5.86445893 422.41321504 5.08820024 425.11350027 4.34375 427.8359375 C-1.70768462 449.42479465 -9.47499156 470.33415355 -20.02734375 490.15185547 C-21.04689978 492.0891143 -22.02531699 494.04372087 -23 496.00390625 C-35.39194806 520.59987035 -52.47872284 542.73662251 -71 563 C-71.84304688 563.94746094 -72.68609375 564.89492187 -73.5546875 565.87109375 C-80.28349649 573.40153871 -87.44204272 580.30638958 -95 587 C-95.51256348 587.45729492 -96.02512695 587.91458984 -96.55322266 588.38574219 C-114.46059999 604.27417854 -134.66354937 617.3873871 -155.625 628.875 C-156.23432373 629.2150708 -156.84364746 629.5551416 -157.47143555 629.90551758 C-159.1640625 630.8046875 -159.1640625 630.8046875 -162 632 C-165 631 -165 631 -165.9499054 629.23725891 C-166.22078476 628.46585068 -166.49166412 627.69444244 -166.77075195 626.8996582 C-167.08628021 626.01980759 -167.40180847 625.13995697 -167.72689819 624.23344421 C-168.0606546 623.26566544 -168.39441101 622.29788666 -168.73828125 621.30078125 C-169.09524078 620.29638504 -169.45220032 619.29198883 -169.81997681 618.25715637 C-170.59066364 616.0844825 -171.35601401 613.90991003 -172.1166687 611.73370361 C-173.32287749 608.28281062 -174.54232545 604.83687178 -175.76586914 601.39208984 C-177.00685645 597.89810405 -178.24716247 594.4039002 -179.48332214 590.90820312 C-182.88774226 581.28340788 -186.38705738 571.69670212 -189.9375 562.125 C-191.06734305 559.07196062 -192.19592997 556.01845784 -193.32421875 552.96484375 C-193.61255081 552.18477966 -193.90088287 551.40471558 -194.19795227 550.60101318 C-198.24552019 539.64092366 -202.24420481 528.66290642 -206.25 517.6875 C-212.48099434 500.61797937 -218.72883109 483.55480189 -225 466.5 C-231.18685215 449.67400687 -237.351794 432.84015229 -243.5 416 C-249.67110143 399.09812192 -255.85588469 382.20137094 -262.0625 365.3125 C-262.43363922 364.30253967 -262.80477844 363.29257935 -263.18716431 362.25201416 C-266.51180487 353.20544804 -269.83783904 344.15939462 -273.16503906 335.11376953 C-275.33983068 329.20108082 -277.51400297 323.28816473 -279.6875 317.375 C-280.050784 316.38666168 -280.41406799 315.39832336 -280.7883606 314.3800354 C-287.63367122 295.75265507 -294.43977479 277.11103971 -301.24144745 258.46769714 C-307.91345713 240.18004377 -314.59672772 221.89664188 -321.3125 203.625 C-321.6758847 202.63619843 -322.03926941 201.64739685 -322.41366577 200.62863159 C-326.03081382 190.78682071 -329.65119156 180.9462031 -333.27532959 171.10696411 C-343.99263877 142.00688508 -354.59471787 112.8664001 -365.12878418 83.69949341 C-367.69437262 76.59974914 -370.27072256 69.50403359 -372.85768127 62.41204834 C-374.46644911 58.00153262 -376.07192848 53.58982313 -377.67721558 49.17803955 C-378.4287213 47.11569662 -379.18189178 45.05395948 -379.9367981 42.99285889 C-380.96865542 40.17516264 -381.99474028 37.35542863 -383.01953125 34.53515625 C-383.32465637 33.70686813 -383.62978149 32.87858002 -383.94415283 32.02519226 C-386 26.34170243 -386 26.34170243 -386 23 C-345.48304551 13.69115513 -302.16818359 10.85516624 -261 18 C-259.95553711 18.17160645 -258.91107422 18.34321289 -257.83496094 18.52001953 C-214.22765709 25.7835761 -173.47381337 41.64988524 -136 65 C-135.38592285 65.3825293 -134.7718457 65.76505859 -134.13916016 66.15917969 C-125.04443534 71.88965146 -116.54540238 78.49334845 -108 85 C-104.0554025 81.85673705 -100.81631511 78.80159196 -97.6875 74.8125 C-94.72318298 71.10337971 -91.70316027 67.50502877 -88.5 64 C-85.47717579 60.68010514 -82.57487839 57.30235888 -79.75 53.8125 C-75.58915231 48.67305572 -71.28265511 43.67673848 -66.94067383 38.69091797 C-63.40838932 34.63215511 -59.90637757 30.55056164 -56.4375 26.4375 C-55.99712402 25.91679932 -55.55674805 25.39609863 -55.10302734 24.85961914 C-53.22131228 22.63437292 -51.34128294 20.40788271 -49.47119141 18.17285156 C-47.90242834 16.29849793 -46.32662602 14.43024115 -44.75 12.5625 C-44.27876709 11.99523193 -43.80753418 11.42796387 -43.32202148 10.84350586 C-32.00041287 -2.51540007 -16.52827933 -9.48845665 0 0 Z " fill="#55B25A" transform="translate(1779,771)"/>
<path d="M0 0 C5.07781021 12.85235072 9.89629427 25.78907763 14.6177063 38.7762146 C16.70464286 44.51634291 18.79823445 50.25404556 20.890625 55.9921875 C21.31791397 57.16454453 21.74520294 58.33690155 22.18544006 59.54478455 C26.45852334 71.26611289 30.75768283 82.97779629 35.0625 94.6875 C35.81137429 96.72517403 36.56023493 98.76285308 37.30908203 100.80053711 C40.25999681 108.82949542 43.21207135 116.85802699 46.16503906 124.88623047 C56.17162696 152.09152612 66.14078469 179.3102535 76.07325077 206.54268646 C76.53724497 207.81477045 77.00130714 209.08682965 77.46543789 210.35886383 C78.60414697 213.47978125 79.741808 216.60107321 80.87785339 219.72296143 C83.00513378 225.56314587 85.14327636 231.39842165 87.31850719 237.22089291 C88.34534923 239.97028447 89.36734807 242.72146677 90.38925362 245.4726963 C90.87595936 246.77842709 91.36517471 248.08322563 91.85709953 249.38699913 C92.53936438 251.19549721 93.21236359 253.00748247 93.88500977 254.81958008 C94.27020279 255.84682693 94.65539581 256.87407379 95.05226135 257.93244934 C96.0863184 261.27938721 96.58960445 264.52579436 97 268 C71.75439968 283.4835372 45.69586938 293.74656524 17 301 C16.20972412 301.20898926 15.41944824 301.41797852 14.60522461 301.63330078 C7.41124314 303.33105329 0.19604915 303.30429381 -7.15161133 303.26074219 C-9.32596155 303.24993308 -11.49950148 303.26073785 -13.67382812 303.2734375 C-15.0703143 303.27211722 -16.46679998 303.26955755 -17.86328125 303.265625 C-19.11407471 303.26336914 -20.36486816 303.26111328 -21.65356445 303.25878906 C-25 303 -25 303 -27.38354492 301.92089844 C-33.61460718 299.72778779 -41.33649708 302.35713356 -47.66015625 303.63671875 C-49.33681267 303.96763655 -51.01357531 304.29801646 -52.69042969 304.62792969 C-53.56453491 304.80078491 -54.43864014 304.97364014 -55.3392334 305.1517334 C-98.18487474 313.58104533 -141.40429775 319.31447913 -185 322 C-186.89733887 322.13136353 -186.89733887 322.13136353 -188.83300781 322.26538086 C-205.296371 323.31194141 -221.79469651 323.18733519 -238.28369141 323.18530273 C-241.73263878 323.18522216 -245.18145137 323.19206721 -248.63037109 323.20581055 C-279.06504198 323.32502529 -309.39028615 322.38367382 -339.6875 319.3125 C-340.90874573 319.19136337 -340.90874573 319.19136337 -342.15466309 319.06777954 C-396.71246626 313.60178241 -450.65298473 303.63400152 -503.625 289.5 C-504.5008374 289.26917725 -505.3766748 289.03835449 -506.27905273 288.80053711 C-508.20549949 288.26612178 -510.10734547 287.64393763 -512 287 C-513 285 -513 285 -512.36820984 282.65953064 C-512.01168839 281.67481277 -511.65516693 280.69009491 -511.2878418 279.67553711 C-510.88467239 278.55057327 -510.48150299 277.42560944 -510.06611633 276.26655579 C-509.61504013 275.03261581 -509.16396393 273.79867584 -508.69921875 272.52734375 C-508.23111399 271.23058969 -507.76365382 269.93360279 -507.29679871 268.63639832 C-506.03309143 265.13132546 -504.75980623 261.62980166 -503.48464203 258.12888336 C-502.41818509 255.19713981 -501.35739886 252.2633593 -500.29674149 249.32951355 C-493.16700054 229.60838065 -485.96104153 209.9150175 -478.70507812 190.23999023 C-472.52181151 173.46796363 -466.43998776 156.66005026 -460.3684082 139.84732056 C-455.41294154 126.13005248 -450.43422634 112.42193616 -445.38671875 98.73828125 C-445.15604517 98.11291977 -444.92537159 97.48755829 -444.6877079 96.84324646 C-442.63864378 91.28952368 -440.58707188 85.7367307 -438.53262329 80.18499756 C-432.33679352 63.45141962 -432.33679352 63.45141962 -426.34375 46.64453125 C-426.07950226 45.88983047 -425.81525452 45.1351297 -425.54299927 44.3575592 C-424.3829323 41.03689368 -423.23522769 37.71307202 -422.10498047 34.38208008 C-421.72744629 33.28919678 -421.34991211 32.19631348 -420.9609375 31.0703125 C-420.64946777 30.15008301 -420.33799805 29.22985352 -420.01708984 28.28173828 C-418.95423468 25.89733012 -418.09227227 24.5553203 -416 23 C-409.05639962 23.24029166 -402.22997313 25.21724626 -395.46963501 26.72421265 C-349.49221452 36.89341032 -303.01516019 41.55051022 -256 43 C-254.86143555 43.03609375 -253.72287109 43.0721875 -252.54980469 43.109375 C-246.02334904 43.28511261 -239.52485627 43.210722 -233 43 C-232.30487305 42.97808594 -231.60974609 42.95617188 -230.89355469 42.93359375 C-156.03822167 40.52197641 -83.17881697 27.74160401 -12.3828125 3.16992188 C-11.26648437 2.78384766 -10.15015625 2.39777344 -9 2 C-7.38738281 1.42862305 -7.38738281 1.42862305 -5.7421875 0.84570312 C-3 0 -3 0 0 0 Z " fill="#2B71E5" transform="translate(1228,1253)"/>
<path d="M0 0 C0.77420288 -0.01053406 1.54840576 -0.02106812 2.34606934 -0.03192139 C17.82743955 -0.19464588 32.28438607 2.72286789 46.9375 7.6875 C47.80898682 7.98229248 48.68047363 8.27708496 49.57836914 8.58081055 C68.13222126 15.10804727 84.21916452 25.93875535 98.375 39.5 C99.24511719 40.29535156 100.11523438 41.09070313 101.01171875 41.91015625 C118.5492175 58.49697746 130.43655409 80.54696877 137.375 103.5 C137.69082031 104.53253906 138.00664063 105.56507813 138.33203125 106.62890625 C147.93957374 141.41483596 142.20929204 180.4573076 124.81738281 211.83325195 C117.98649221 223.56961631 109.77405994 233.74383292 100.375 243.5 C99.73304688 244.20511719 99.09109375 244.91023437 98.4296875 245.63671875 C77.02935443 268.47300491 42.14066207 283.57647067 11.08666992 284.609375 C-15.54266743 285.03971915 -39.55274647 282.95762537 -63.625 270.5 C-65.25501953 269.68208984 -65.25501953 269.68208984 -66.91796875 268.84765625 C-99.981065 251.75407425 -125.62485768 221.11964291 -136.99609375 185.66113281 C-143.90804421 161.90935275 -145.96119941 134.56117105 -139.625 110.5 C-139.3465625 109.27152344 -139.068125 108.04304688 -138.78125 106.77734375 C-133.81293277 86.06888357 -123.33369602 66.71569375 -109.625 50.5 C-109.19461426 49.98985352 -108.76422852 49.47970703 -108.32080078 48.95410156 C-89.94075094 27.4595976 -65.67236856 12.58100906 -38.625 4.5 C-37.92858398 4.28682129 -37.23216797 4.07364258 -36.51464844 3.85400391 C-24.51212157 0.36180585 -12.40561285 0.08541244 0 0 Z " fill="#FEFEFE" transform="translate(1019.625,334.5)"/>
<path d="M0 0 C0.74765625 0.60328125 1.4953125 1.2065625 2.265625 1.828125 C20.35847955 16.88441655 32.04729905 40.69310246 34.28800106 63.99503517 C34.95891115 72.88552581 35.1373264 81.72175877 35.11352539 90.63427734 C35.11324248 92.14371234 35.11340327 93.65314748 35.1139679 95.1625824 C35.11425183 99.21328946 35.10842116 103.26396619 35.10139394 107.31466627 C35.09509242 111.56537689 35.09455127 115.81608841 35.09336853 120.06680298 C35.09027509 128.09514314 35.0820888 136.1234695 35.07201904 144.15180361 C35.0607958 153.30068265 35.05533188 162.44956239 35.05032361 171.59844661 C35.03990427 190.3989722 35.02234377 209.19948498 35 228 C33.56485187 227.52525746 32.13001637 227.04956978 30.6953125 226.57348633 C29.89625488 226.30868973 29.09719727 226.04389313 28.27392578 225.77107239 C25.48182608 224.82429083 22.74156071 223.77145946 20 222.6875 C18.31003906 222.04167969 18.31003906 222.04167969 16.5859375 221.3828125 C14.20632242 220.46518316 11.8361726 219.52259852 9.4765625 218.5546875 C-0.02474413 214.79962092 -9.74926889 212.62675052 -19.75 210.6875 C-20.73549835 210.49391403 -20.73549835 210.49391403 -21.74090576 210.29641724 C-68.42037779 201.22345448 -115.92373261 207.46385145 -159.98901367 224.24731445 C-161.64628696 224.86760989 -163.32125372 225.44041791 -165 226 C-165.09383463 205.4840472 -165.16416957 184.96813852 -165.20724869 164.45201492 C-165.22779114 154.92399125 -165.25575074 145.39610163 -165.30175781 135.86816406 C-165.34188233 127.55445594 -165.36749308 119.240845 -165.37635398 110.92704272 C-165.38152582 106.53322218 -165.39350334 102.13967944 -165.42292023 97.74594879 C-165.64528831 63.1630719 -162.24256875 31.65165267 -136.83203125 5.796875 C-135.43017578 4.41242187 -135.43017578 4.41242187 -134 3 C-133.32324219 2.32453125 -132.64648438 1.6490625 -131.94921875 0.953125 C-118.28480974 -11.80422474 -100.29393365 -19.84587351 -82 -23 C-81.26136719 -23.13019531 -80.52273438 -23.26039062 -79.76171875 -23.39453125 C-51.03491491 -27.45198942 -21.88548027 -18.94783191 0 0 Z " fill="#3378E9" transform="translate(1087,27)"/>
<path d="M0 0 C4.82965862 3.14822192 9.53124584 6.39008305 14.125 9.875 C39.37739268 28.22135159 70.30510375 35.50268799 101 37 C100.40210976 40.89526586 99.22267713 43.81374269 97.33203125 47.26171875 C96.77580078 48.28458984 96.21957031 49.30746094 95.64648438 50.36132812 C95.04126953 51.45896484 94.43605469 52.55660156 93.8125 53.6875 C92.85499927 55.44406608 91.89750821 57.20063753 90.94064331 58.95755005 C89.94888757 60.77665612 88.95437029 62.59423179 87.95947266 64.41162109 C84.94425187 69.92557597 81.97449457 75.46400621 79 81 C77.83354722 83.16678182 76.66687984 85.33344813 75.5 87.5 C74.9225 88.5725 74.345 89.645 73.75 90.75 C67.33333333 102.66666667 60.91666667 114.58333333 54.5 126.5 C53.92233887 127.57282227 53.34467773 128.64564453 52.74951172 129.75097656 C51.58455033 131.91442985 50.41951145 134.07784141 49.25439453 136.24121094 C45.71576264 142.8119666 42.18017288 149.38434831 38.64648438 155.95776367 C36.89986438 159.20379049 35.14948407 162.4477656 33.3984375 165.69140625 C31.13838951 169.87876217 28.89554247 174.07470116 26.6640625 178.27734375 C25.60955775 180.24749366 24.5548785 182.21755018 23.5 184.1875 C23.03190918 185.07791992 22.56381836 185.96833984 22.08154297 186.88574219 C16.27652178 197.67214128 9.07490271 204.88337088 -2.5625 209.375 C-15.22990075 211.67816377 -25.83531879 211.01038122 -37 204 C-45.78533216 197.68072599 -51.05349968 189.68346359 -53 179 C-53.82584256 171.67631929 -53.26667284 165.13029891 -51.12109375 158.08203125 C-50.79890114 157.0185849 -50.79890114 157.0185849 -50.47019958 155.93365479 C-46.5477823 143.10785582 -42.40537744 130.34758036 -38.30863953 117.57661057 C-36.26447853 111.20251242 -34.22430064 104.82713694 -32.18335342 98.4520092 C-31.65610927 96.80526777 -31.12877267 95.15855593 -30.60134506 93.51187325 C-26.87597635 81.88084434 -23.16664449 70.24483063 -19.47237968 58.60388565 C-18.70625541 56.19013842 -17.9396546 53.77654312 -17.17286682 51.36300659 C-16.92406611 50.57986776 -16.67526541 49.79672894 -16.41892529 48.98985863 C-15.92321431 47.42957245 -15.42748757 45.86929128 -14.93174458 44.30901527 C-13.72482202 40.50960349 -12.51923334 36.70977775 -11.31643677 32.90905762 C-10.18941787 29.34781231 -9.05916873 25.78760815 -7.92653847 22.22814369 C-7.31749666 20.31100647 -6.7120525 18.39272748 -6.10673523 16.47441101 C-4.31367399 10.84767255 -2.47282695 5.36579916 0 0 Z " fill="#256BE0" transform="translate(376,1836)"/>
<path d="M0 0 C2.47290957 2.47290957 2.93323919 4.40730815 3.98925781 7.74145508 C4.37937546 8.9626001 4.7694931 10.18374512 5.1714325 11.44189453 C5.59876579 12.80107456 6.02599312 14.16028791 6.453125 15.51953125 C6.90540324 16.94296353 7.35824136 18.36621801 7.81159973 19.78930664 C9.04141399 23.65483048 10.26370365 27.52269737 11.48476028 31.39099503 C12.76454856 35.44072428 14.05133567 39.48822742 15.33764648 43.53588867 C17.20904173 49.42664928 19.07829279 55.31808227 20.94484997 61.21037769 C24.3525502 71.96733702 27.77565723 82.71932099 31.20703125 93.46875 C31.45584675 94.24830236 31.70466225 95.02785473 31.96101761 95.83102989 C32.94647093 98.91848116 33.93198831 102.00591196 34.91763115 105.09330273 C36.55096161 110.20951111 38.18362467 115.32593182 39.81542969 120.44262695 C40.03478243 121.1303846 40.25413517 121.81814224 40.48013496 122.52674103 C41.53446166 125.83316392 42.58785372 129.13987968 43.63925171 132.44723511 C45.38486078 137.93747397 47.13467088 143.42596604 48.91357422 148.90551758 C49.19599472 149.78169235 49.47841522 150.65786713 49.76939392 151.56059265 C50.27007215 153.1131395 50.77491864 154.66435328 51.28541565 156.21369934 C55.04176451 167.91600556 54.92441636 178.91734275 49.875 190.125 C44.99152487 199.18214284 37.5042678 205.18832772 28 209 C17.06402345 212.07787136 6.30034236 211.49747636 -3.875 206.3125 C-14.57600468 199.80220669 -19.27216587 190.77195363 -25 180 C-26.13851198 177.88107449 -27.27789511 175.76261692 -28.41796875 173.64453125 C-30.98643167 168.86583038 -33.54708284 164.08306269 -36.1015625 159.296875 C-39.73961676 152.48116792 -43.39728438 145.6761433 -47.0625 138.875 C-47.63572998 137.81104004 -48.20895996 136.74708008 -48.79956055 135.65087891 C-49.95498512 133.5064603 -51.11050244 131.36209167 -52.26611328 129.21777344 C-55.17870265 123.81254563 -58.0892423 118.40621432 -61 113 C-62.16665696 110.83332811 -63.33332363 108.66666144 -64.5 106.5 C-71.5 93.5 -71.5 93.5 -73.25244141 90.24536133 C-74.41085342 88.09409409 -75.56938073 85.94288894 -76.72802734 83.79174805 C-79.44789031 78.74172353 -82.1666259 73.69110243 -84.88116455 68.63821411 C-85.84236511 66.84915018 -86.8039388 65.0602873 -87.765625 63.27148438 C-88.9720969 61.0270918 -90.17786812 58.78232239 -91.3828125 56.53710938 C-93.66847863 52.28652508 -95.95300599 48.04781015 -98.3984375 43.88671875 C-100 41 -100 41 -100 39 C-99.22100342 38.90501221 -98.44200684 38.81002441 -97.6394043 38.7121582 C-63.24499103 34.44420133 -32.5351017 26.05338161 -5 4 C-4.06542969 3.25363281 -3.13085938 2.50726562 -2.16796875 1.73828125 C-1.45253906 1.16464844 -0.73710938 0.59101562 0 0 Z " fill="#1961D8" transform="translate(1667,1836)"/>
<path d="M0 0 C7.17860998 5.02799335 11.14499256 11.08732142 13.890625 19.32421875 C14.89400716 34.58878674 12.33960999 45.88725904 2.890625 58.32421875 C-3.60022677 65.62817939 -13.89637841 71.85556599 -23.734375 72.59765625 C-33.80521363 72.92606573 -42.3265817 72.34421935 -50.30078125 65.421875 C-52.16936835 63.25463683 -52.93211225 61.73264603 -53.734375 59.01171875 C-53.97027344 58.21636719 -54.20617188 57.42101563 -54.44921875 56.6015625 C-54.66707031 55.85003906 -54.88492187 55.09851562 -55.109375 54.32421875 C-55.50125 53.25171875 -55.893125 52.17921875 -56.296875 51.07421875 C-58.95208821 38.81938854 -56.75537956 27.85098907 -50.16796875 17.26342773 C-39.79980338 1.64118553 -18.23456319 -9.91765364 0 0 Z " fill="#010201" transform="translate(1682.109375,1178.67578125)"/>
<path d="M0 0 C8.0077847 5.24647963 14.81099103 13.05725031 17.625 22.3125 C18.88191456 31.2654406 18.0609822 38.93698046 12.625 46.3125 C5.16327042 54.73127751 -4.70964603 58.33985823 -15.671875 59.5703125 C-28.11592734 60.18031507 -40.18609217 55.32821801 -49.625 47.4296875 C-54.12301475 43.21279867 -57.0980256 39.02890415 -59.375 33.3125 C-59.7875 32.343125 -60.2 31.37375 -60.625 30.375 C-62.5886271 22.35685601 -61.27545662 16.48825294 -57.375 9.3125 C-56.818125 8.260625 -56.26125 7.20875 -55.6875 6.125 C-41.87256619 -10.67694653 -17.67665073 -9.70323794 0 0 Z " fill="#010101" transform="translate(1576.375,885.6875)"/>
<path d="M0 0 C0.495 1.98 0.495 1.98 1 4 C-28.56104668 22.13027063 -65.10287337 39.43067601 -100.4375 39.3125 C-101.87706055 39.33666992 -101.87706055 39.33666992 -103.34570312 39.36132812 C-110.30958039 39.3660176 -116.38212397 38.13539816 -123 36 C-122 34 -122 34 -120.2409668 33.34570312 C-119.48468994 33.15943359 -118.72841309 32.97316406 -117.94921875 32.78125 C-117.11084473 32.57218018 -116.2724707 32.36311035 -115.40869141 32.14770508 C-114.51069824 31.9339624 -113.61270508 31.72021973 -112.6875 31.5 C-111.77919434 31.27787842 -110.87088867 31.05575684 -109.93505859 30.8269043 C-104.10591568 29.42693484 -98.28604286 28.28509597 -92.35546875 27.3984375 C-89.44234163 26.90566973 -86.75448021 26.05941547 -84 25 C-80.78767875 23.92922625 -78.36062193 24 -75 24 C-74.01 23.67 -73.02 23.34 -72 23 C-70.68 23 -69.36 23 -68 23 C-68 22.34 -68 21.68 -68 21 C-67.01 21 -66.02 21 -65 21 C-64.67 20.34 -64.34 19.68 -64 19 C-63.34 19.33 -62.68 19.66 -62 20 C-61.67 19.34 -61.34 18.68 -61 18 C-59.2421875 17.32421875 -59.2421875 17.32421875 -56.875 16.6875 C-52.35330668 15.40948912 -47.89026791 13.99854908 -43.4375 12.5 C-42.78942383 12.28255127 -42.14134766 12.06510254 -41.47363281 11.84106445 C-39.6488014 11.22823064 -37.82438865 10.61415063 -36 10 C-34.37524015 9.4576134 -32.75028441 8.91581268 -31.125 8.375 C-30.43277344 8.14425781 -29.74054688 7.91351562 -29.02734375 7.67578125 C-26.9140625 6.97135417 -24.80078125 6.26692708 -22.6875 5.5625 C-21.95789062 5.31886719 -21.22828125 5.07523438 -20.4765625 4.82421875 C-18.597356 4.1988046 -16.71692734 3.57706123 -14.8359375 2.95703125 C-13.75570313 2.59996094 -12.67546875 2.24289062 -11.5625 1.875 C-10.55316406 1.54242187 -9.54382812 1.20984375 -8.50390625 0.8671875 C-3.21506155 -0.96451846 -3.21506155 -0.96451846 0 0 Z " fill="#0252CA" transform="translate(1324,1517)"/>
<path d="M0 0 C9.0890091 -0.29110705 15.62184014 0.15895678 23 6 C29.56761264 13.31819694 31.32565934 19.69704575 31.125 29.375 C31.11597656 30.20644531 31.10695313 31.03789063 31.09765625 31.89453125 C31.0742622 33.92981337 31.03839725 35.96494564 31 38 C31.66 36.35 32.32 34.7 33 33 C33.33 33 33.66 33 34 33 C33.66139052 43.32758909 29.02890216 51.60084699 22.0703125 59.13671875 C18.14715958 62.66755637 13.74305703 65.67959897 9 68 C8.34 67.67 7.68 67.34 7 67 C7.66386719 66.49210937 8.32773438 65.98421875 9.01171875 65.4609375 C17.14263734 59.25461406 17.14263734 59.25461406 23 51 C20.03 50.01 17.06 49.02 14 48 C14.33773438 47.3709375 14.67546875 46.741875 15.0234375 46.09375 C17.80555028 40.75466652 19.79807011 35.90038308 21 30 C21.66 30 22.32 30 23 30 C22.97411392 20.90104227 22.5834303 13.7262379 16 7 C10.9932429 2.71586764 6.51387204 1.34895743 0 1 C0 0.67 0 0.34 0 0 Z " fill="#282728" transform="translate(1660,1179)"/>
<path d="M0 0 C-2.69985178 7.24195536 -12.58023164 10.4299342 -19.17675781 13.45849609 C-22.773673 15.06053855 -26.38157146 16.6348381 -30 18.1875 C-31.16192871 18.68636719 -32.32385742 19.18523437 -33.52099609 19.69921875 C-39.5284386 22.23541343 -45.57259454 24.66163429 -51.6875 26.92578125 C-52.82574219 27.34899658 -53.96398438 27.77221191 -55.13671875 28.20825195 C-58 29 -58 29 -61 28 C-60.67 27.34 -60.34 26.68 -60 26 C-59.34 26.33 -58.68 26.66 -58 27 C-57.67 26.01 -57.34 25.02 -57 24 C-57 24.66 -57 25.32 -57 26 C-56.34 26 -55.68 26 -55 26 C-55.33 23.03 -55.66 20.06 -56 17 C-53.48045712 16.0381577 -50.95946363 15.08045759 -48.4375 14.125 C-47.73302734 13.85558594 -47.02855469 13.58617187 -46.30273438 13.30859375 C-41.9147257 11.65045222 -37.52206087 10.26158945 -33 9 C-31.59647067 8.50027661 -30.19871709 7.9834123 -28.8125 7.4375 C-26.95829903 6.70865929 -25.17350325 6.04270257 -23.23828125 5.56640625 C-19.89429641 4.72019717 -16.64350903 3.59576452 -13.375 2.5 C-12.694375 2.27441406 -12.01375 2.04882812 -11.3125 1.81640625 C-3.09448547 -0.92834564 -3.09448547 -0.92834564 0 0 Z " fill="#0061CF" transform="translate(1324,1517)"/>
<path d="M0 0 C0.33 0 0.66 0 1 0 C1.10546143 0.8156543 1.21092285 1.63130859 1.31958008 2.47167969 C1.72219084 5.55887192 2.13117179 8.64514118 2.54418945 11.73095703 C2.80571153 13.69891659 3.06017695 15.66780985 3.31445312 17.63671875 C7.65705543 49.91946038 20.98701493 78.39640891 42.42138672 102.73925781 C44.73339474 105.38179546 46.48669457 107.84367725 48 111 C50.0335948 112.26804566 50.0335948 112.26804566 52 113 C51.67 113.66 51.34 114.32 51 115 C32.80411408 107.35857227 19.53762233 79.93403295 12.3125 62.8125 C4.22641485 42.72015482 -0.42048473 21.70427988 0 0 Z " fill="#74A5F9" transform="translate(320,1720)"/>
<path d="M0 0 C0 0.66 0 1.32 0 2 C-2.40716549 3.63046165 -4.79793863 5.11293256 -7.3125 6.5625 C-8.07578613 7.00505127 -8.83907227 7.44760254 -9.62548828 7.90356445 C-34.74073523 22.22778184 -68.23109596 37.70135106 -97.625 37.125 C-98.83414062 37.10695313 -100.04328125 37.08890625 -101.2890625 37.0703125 C-102.18367188 37.04710937 -103.07828125 37.02390625 -104 37 C-104 36.67 -104 36.34 -104 36 C-103.11183594 35.92523437 -102.22367188 35.85046875 -101.30859375 35.7734375 C-70.26697914 32.57843781 -40.55078246 20.31806614 -12.8125 6.5625 C-12.17151367 6.24482666 -11.53052734 5.92715332 -10.87011719 5.59985352 C-7.47630104 3.87560585 -3.74189296 0 0 0 Z " fill="#0000D6" transform="translate(1325,1519)"/>
<path d="M0 0 C2.475 0.495 2.475 0.495 5 1 C5 1.66 5 2.32 5 3 C5.66 2.67 6.32 2.34 7 2 C9.3329866 1.95977609 11.66706666 1.95679753 14 2 C14 1.34 14 0.68 14 0 C15.32 0.33 16.64 0.66 18 1 C13.41948379 4.05367748 8.31558803 4.80257688 3 6.0625 C1.91332031 6.33126953 0.82664062 6.60003906 -0.29296875 6.87695312 C-7.19504186 8.53031711 -13.91603862 9.58512777 -21 10 C-21.80058838 10.04842041 -22.60117676 10.09684082 -23.42602539 10.14672852 C-29.61698129 10.45500095 -35.13091302 8.84300301 -41 7 C-40.67 6.34 -40.34 5.68 -40 5 C-36.9375 4.375 -36.9375 4.375 -34 4 C-34 4.99 -34 5.98 -34 7 C-32.7934375 6.7215625 -32.7934375 6.7215625 -31.5625 6.4375 C-30.2940625 6.2209375 -30.2940625 6.2209375 -29 6 C-28.67 6.33 -28.34 6.66 -28 7 C-22.6345337 7.4857159 -18.02489144 7.06149392 -13 5 C-13 4.34 -13 3.68 -13 3 C-13.66 2.67 -14.32 2.34 -15 2 C-12.94696077 2.51325981 -10.90563418 3.02775465 -8.875 3.625 C-6.91960301 4.2156101 -6.91960301 4.2156101 -5 3 C-4.67 2.34 -4.34 1.68 -4 1 C-2.68 1.33 -1.36 1.66 0 2 C0 1.34 0 0.68 0 0 Z " fill="#0073CF" transform="translate(1242,1546)"/>
<path d="M0 0 C0.66 0.33 1.32 0.66 2 1 C1.566875 1.81791016 1.566875 1.81791016 1.125 2.65234375 C-2.68701658 10.39550242 -3.08238683 16.18109661 -0.5625 24.4375 C3.40672726 34.38145881 11.31721276 41.67853289 21 46 C34.42542794 50.94377093 46.20843852 51.63207023 59.5390625 45.91015625 C61.38655961 44.99293595 63.19855312 44.00465307 65 43 C64.00225828 45.55872472 63.35661889 46.78313716 60.9765625 48.23046875 C60.20054688 48.54628906 59.42453125 48.86210938 58.625 49.1875 C57.46871094 49.67283203 57.46871094 49.67283203 56.2890625 50.16796875 C44.45874411 54.46806742 29.28254475 53.09989853 18 48 C12.6009892 45.09773352 8.59661899 42.00957645 5 37 C4.175 36.2575 3.35 35.515 2.5 34.75 C-3.83570954 27.7807195 -4.62986874 20.81623029 -4.40625 11.5546875 C-3.86819571 6.84671247 -2.57321776 3.94023969 0 0 Z " fill="#2F7534" transform="translate(1518,894)"/>
<path d="M0 0 C3.26107111 2.53837953 5.63580163 5.37461564 8.1328125 8.66015625 C4.92417181 7.55718601 2.21113088 6.1235632 -0.6171875 4.28515625 C-14.02258055 -4.21826471 -27.33346296 -5.8367757 -42.8671875 -5.33984375 C-30.61686228 -13.50672723 -11.31377656 -7.29981293 0 0 Z " fill="#353B35" transform="translate(1578.8671875,887.33984375)"/>
<path d="M0 0 C-1.47838059 4.37639817 -4.71919516 5.96413812 -8.5625 8.0625 C-9.18785645 8.41248047 -9.81321289 8.76246094 -10.45751953 9.12304688 C-15.1694312 11.697809 -19.81196651 13.56881835 -25 15 C-24.67 14.01 -24.34 13.02 -24 12 C-21.9375 11.3125 -21.9375 11.3125 -20 11 C-19.9175 9.9275 -19.835 8.855 -19.75 7.75 C-19.234375 5.8203125 -19.234375 5.8203125 -18 4 C-14.13630892 2.13438917 -10.13681711 1.09296589 -6 0 C-3.50907189 -1.24546405 -2.58919267 -0.7767578 0 0 Z " fill="#0060CD" transform="translate(1324,1517)"/>
<path d="M0 0 C0.66 0 1.32 0 2 0 C3.2530313 1.55351843 4.42642947 3.17150923 5.5625 4.8125 C12.57677056 14.73756379 12.57677056 14.73756379 20.76171875 23.6875 C22 25 22 25 22 27 C23.32 27.66 24.64 28.32 26 29 C25.67 29.66 25.34 30.32 25 31 C16.14005084 27.27923249 9.35580841 17.50994291 3.75 10 C3.26007568 9.35329346 2.77015137 8.70658691 2.26538086 8.0402832 C1.09021462 6.41965144 0.0336561 4.71435646 -1 3 C-0.67 2.01 -0.34 1.02 0 0 Z " fill="#629AF8" transform="translate(346,1804)"/>
<path d="M0 0 C0.33 0 0.66 0 1 0 C1.33 2.31 1.66 4.62 2 7 C2.66 5.68 3.32 4.36 4 3 C5.97485509 13.0388467 2.90106388 20.12551231 -2.25 28.75 C-8.32285173 37.77582403 -15.93469455 42.92914313 -26 47 C-26.99 47 -27.98 47 -29 47 C-29 46.34 -29 45.68 -29 45 C-26.39376229 43.92684329 -23.83220931 42.95000522 -21.12890625 42.14453125 C-11.5723382 38.64880786 -5.5752992 30.74390513 -1 22 C0.68982272 18.33067066 2 15.10041459 2 11 C1.34 12.65 0.68 14.3 0 16 C-1.16306443 12.45049966 -0.92365049 9.44176052 -0.5625 5.75 C-0.46066406 4.67234375 -0.35882812 3.5946875 -0.25390625 2.484375 C-0.17011719 1.66453125 -0.08632812 0.8446875 0 0 Z " fill="#0F1510" transform="translate(1691,1203)"/>
<path d="M0 0 C6.86940393 0.473752 10.99413427 1.99413427 16 7 C15.625 9.625 15.625 9.625 15 12 C11.10391502 10.51095825 7.40902982 8.75621287 3.6875 6.875 C2.61886719 6.33617187 1.55023437 5.79734375 0.44921875 5.2421875 C-0.76314453 4.62730469 -0.76314453 4.62730469 -2 4 C-1.34 2.68 -0.68 1.36 0 0 Z " fill="#ABA6AA" transform="translate(1559,889)"/>
<path d="M0 0 C2.475 0.99 2.475 0.99 5 2 C4.64455443 8.63498399 2.86904957 12.63187218 -1 18 C-2.98 17.67 -4.96 17.34 -7 17 C-6.66226562 16.35933594 -6.32453125 15.71867187 -5.9765625 15.05859375 C-3.41356739 10.08816104 -1.30136816 5.44208502 0 0 Z " fill="#AEAAAE" transform="translate(1681,1210)"/>
<path d="M0 0 C0.33 0 0.66 0 1 0 C0.66139052 10.32758909 -3.97109784 18.60084699 -10.9296875 26.13671875 C-14.85284042 29.66755637 -19.25694297 32.67959897 -24 35 C-24.66 34.67 -25.32 34.34 -26 34 C-25.33613281 33.49210937 -24.67226562 32.98421875 -23.98828125 32.4609375 C-18.07943086 27.91494181 -18.07943086 27.91494181 -13 22.5 C-12.01 21.2625 -12.01 21.2625 -11 20 C-10.34 20 -9.68 20 -9 20 C-8.7215625 19.278125 -8.443125 18.55625 -8.15625 17.8125 C-6.69974137 14.26964116 -4.96479718 10.90692134 -3.21875 7.5 C-2.01882619 5.03861782 -0.9851014 2.55396658 0 0 Z " fill="#383838" transform="translate(1693,1212)"/>
<path d="M0 0 C0 0.66 0 1.32 0 2 C-2.40702543 3.63036678 -4.79839706 5.11246864 -7.3125 6.5625 C-8.06490967 7.00070068 -8.81731934 7.43890137 -9.5925293 7.89038086 C-30.55239471 19.88313648 -30.55239471 19.88313648 -40 22 C-39.00080293 19.35725409 -38.34297011 18.20029172 -35.86791992 16.75488281 C-34.56238159 16.2342627 -34.56238159 16.2342627 -33.23046875 15.703125 C-32.26455811 15.30528809 -31.29864746 14.90745117 -30.3034668 14.49755859 C-29.27519775 14.08586426 -28.24692871 13.67416992 -27.1875 13.25 C-19.04407748 9.87242728 -11.55707478 6.29574615 -4.23046875 1.3984375 C-2 0 -2 0 0 0 Z " fill="#0000CB" transform="translate(1325,1519)"/>
<path d="M0 0 C0.66 0.33 1.32 0.66 2 1 C0.87578147 4.37265559 0.48610083 4.60448712 -2.4296875 6.3046875 C-3.13794678 6.72121582 -3.84620605 7.13774414 -4.57592773 7.56689453 C-5.71396851 8.21440674 -5.71396851 8.21440674 -6.875 8.875 C-7.64207275 9.31827637 -8.40914551 9.76155273 -9.19946289 10.21826172 C-24.5860624 19 -24.5860624 19 -29 19 C-29 18.34 -29 17.68 -29 17 C-28.47680176 16.73372803 -27.95360352 16.46745605 -27.41455078 16.19311523 C-13.18378167 8.95403465 -13.18378167 8.95403465 0 0 Z " fill="#639AF7" transform="translate(570,1844)"/>
<path d="M0 0 C0 0.99 0 1.98 0 3 C1.2065625 2.7215625 1.2065625 2.7215625 2.4375 2.4375 C3.7059375 2.2209375 3.7059375 2.2209375 5 2 C5.33 2.33 5.66 2.66 6 3 C11.01762683 3.4457809 15.44622611 3.35033491 20 1 C20 1.66 20 2.32 20 3 C21.32 3.66 22.64 4.32 24 5 C12.744384 6.17815794 3.89641884 6.42167919 -7 3 C-6.67 2.34 -6.34 1.68 -6 1 C-3.911361 0.32624548 -2.19636905 0 0 0 Z " fill="#00AFB4" transform="translate(1208,1550)"/>
<path d="M0 0 C0.66 0.99 1.32 1.98 2 3 C6.21469124 4.52197184 8.91270419 3.54408953 13 2 C13.66 2 14.32 2 15 2 C15.33 1.34 15.66 0.68 16 0 C16.66 0.99 17.32 1.98 18 3 C15.2120519 4.19696701 12.42025583 5.38283014 9.625 6.5625 C8.43390625 7.07586914 8.43390625 7.07586914 7.21875 7.59960938 C6.07792969 8.07817383 6.07792969 8.07817383 4.9140625 8.56640625 C4.2123291 8.86490479 3.5105957 9.16340332 2.78759766 9.47094727 C1 10 1 10 -1 9 C-1 8.34 -1 7.68 -1 7 C-1.66 7 -2.32 7 -3 7 C-1.125 2.25 -1.125 2.25 0 0 Z " fill="#0068CF" transform="translate(1281,1530)"/>
<path d="M0 0 C0.66 0.33 1.32 0.66 2 1 C1.566875 1.81791016 1.566875 1.81791016 1.125 2.65234375 C-2.18158201 9.36883845 -3.25560485 14.55332135 -1.19921875 21.8359375 C0.44222834 26.56381213 2.33509838 30.75448337 5 35 C4.01 35 3.02 35 2 35 C-3.56781771 26.10143419 -5.44713441 18.47393184 -4 8 C-2.96397547 4.90520877 -1.79794885 2.75310917 0 0 Z " fill="#37833D" transform="translate(1518,894)"/>
<path d="M0 0 C3.74265402 4.71899855 4.13736743 8.08284719 4.125 14.0625 C4.12757812 15.31160156 4.13015625 16.56070313 4.1328125 17.84765625 C4 21 4 21 3 23 C2.34 23 1.68 23 1 23 C0.731875 23.763125 0.46375 24.52625 0.1875 25.3125 C-0.94424112 27.87380884 -1.91223401 29.19692938 -4 31 C-4.66 30.67 -5.32 30.34 -6 30 C-5.21625 29.13375 -4.4325 28.2675 -3.625 27.375 C1.4911694 21.12834558 1.39295854 14.76935176 1 7 C0.75921884 4.63299879 0.41677876 2.3443805 0 0 Z " fill="#353B35" transform="translate(1590,901)"/>
<path d="M0 0 C2.5 -0.5 2.5 -0.5 6 0 C8.98079945 2.38784472 11.55688701 5.06702425 14 8 C14 8.33 14 8.66 14 9 C10.65277635 9.58576414 8.65184199 9.44507491 5.8203125 7.51171875 C3.76503945 5.74535419 1.80381763 4.02357206 0 2 C0 1.34 0 0.68 0 0 Z " fill="#928E91" transform="translate(1536,927)"/>
<path d="M0 0 C-1.875 4.75 -1.875 4.75 -3 7 C-2.34 7 -1.68 7 -1 7 C-0.67 7.99 -0.34 8.98 0 10 C-2 10 -4 10 -6 10 C-6 9.34 -6 8.68 -6 8 C-6.66 7.67 -7.32 7.34 -8 7 C-7.67 6.34 -7.34 5.68 -7 5 C-7.99 5 -8.98 5 -10 5 C-10 4.34 -10 3.68 -10 3 C-8.70990357 2.49596232 -7.41786211 1.99690074 -6.125 1.5 C-5.04605469 1.08234375 -5.04605469 1.08234375 -3.9453125 0.65625 C-2 0 -2 0 0 0 Z " fill="#0252CD" transform="translate(1281,1530)"/>
<path d="M0 0 C0.62674095 9.12256267 0.62674095 9.12256267 -1.875 12.625 C-4 14 -4 14 -6 14 C-5.74412595 12.22694336 -5.46972261 10.45655392 -5.1875 8.6875 C-5.03667969 7.70136719 -4.88585938 6.71523437 -4.73046875 5.69921875 C-4.08433405 3.31163011 -3.01109894 0 0 0 Z " fill="#A09CA0" transform="translate(1641,1198)"/>
<path d="M0 0 C1.80791016 -0.00386719 1.80791016 -0.00386719 3.65234375 -0.0078125 C6.59472592 0.10678199 9.20739223 0.44237461 12.0625 1.125 C10.0625 3.125 10.0625 3.125 7.63232422 3.35205078 C6.6373291 3.34157715 5.64233398 3.33110352 4.6171875 3.3203125 C3.54082031 3.31386719 2.46445313 3.30742188 1.35546875 3.30078125 C0.22753906 3.28402344 -0.90039062 3.26726563 -2.0625 3.25 C-3.19816406 3.24097656 -4.33382813 3.23195313 -5.50390625 3.22265625 C-8.31531299 3.19903098 -11.12630298 3.16609013 -13.9375 3.125 C-9.23633087 -0.00911276 -5.61759657 -0.0119906 0 0 Z " fill="#3F4D40" transform="translate(1549.9375,878.875)"/>
<path d="M0 0 C2.0625 0.4375 2.0625 0.4375 4 1 C3.3125 2.9375 3.3125 2.9375 2 5 C-0.79597286 5.86029934 -3.07171074 6 -6 6 C-6.99 6.495 -6.99 6.495 -8 7 C-8 6.34 -8 5.68 -8 5 C-9.32 4.67 -10.64 4.34 -12 4 C-11.21753906 3.79503906 -10.43507813 3.59007812 -9.62890625 3.37890625 C-8.61699219 3.10949219 -7.60507813 2.84007812 -6.5625 2.5625 C-5.55316406 2.29566406 -4.54382812 2.02882813 -3.50390625 1.75390625 C-1.08247999 1.24021923 -1.08247999 1.24021923 0 0 Z " fill="#0087D2" transform="translate(1320,1516)"/>
<path d="M0 0 C2.71435596 0.93305986 3.78043163 1.62673377 5.25 4.125 C5.4975 4.74375 5.745 5.3625 6 6 C3.69 5.67 1.38 5.34 -1 5 C-1 5.66 -1 6.32 -1 7 C-1.99 7 -2.98 7 -4 7 C-4.33 6.01 -4.66 5.02 -5 4 C-3.36587557 2.29159719 -2.13093906 1.06546953 0 0 Z " fill="#005EDA" transform="translate(1257,1541)"/>
<path d="M0 0 C0.66 0.33 1.32 0.66 2 1 C-3.91100155 6.87623095 -12.28689792 14 -21 14 C-21 13.34 -21 12.68 -21 12 C-18.40057838 10.92964992 -15.86192173 9.96054907 -13.15625 9.1875 C-9.68819333 7.8826866 -7.45592471 6.24685583 -4.625 3.875 C-3.75101563 3.15054687 -2.87703125 2.42609375 -1.9765625 1.6796875 C-1.32429688 1.12539062 -0.67203125 0.57109375 0 0 Z " fill="#112514" transform="translate(1683,1236)"/>
<path d="M0 0 C1.32 0.33 2.64 0.66 4 1 C1.08913331 2.94057779 -1.04305699 3.75181737 -4.375 4.6875 C-5.77878906 5.09548828 -5.77878906 5.09548828 -7.2109375 5.51171875 C-10.15689166 6.02746703 -12.13515913 5.77611144 -15 5 C-14.34 4.34 -13.68 3.68 -13 3 C-12.34 3 -11.68 3 -11 3 C-10.34 2.34 -9.68 1.68 -9 1 C-9 1.66 -9 2.32 -9 3 C-8.34 2.67 -7.68 2.34 -7 2 C-4.6670134 1.95977609 -2.33293334 1.95679753 0 2 C0 1.34 0 0.68 0 0 Z " fill="#00AFEA" transform="translate(1256,1546)"/>
<path d="M0 0 C0 0.66 0 1.32 0 2 C-2.47410219 3.6317293 -4.93659659 5.14700164 -7.5 6.625 C-8.21542969 7.04523438 -8.93085937 7.46546875 -9.66796875 7.8984375 C-11.44146033 8.93888589 -13.22025266 9.97028904 -15 11 C-15 10.01 -15 9.02 -15 8 C-12.8940354 6.44870495 -10.87244957 5.12351225 -8.625 3.8125 C-8.02171875 3.44447266 -7.4184375 3.07644531 -6.796875 2.69726562 C-2.29309195 0 -2.29309195 0 0 0 Z " fill="#0000B9" transform="translate(1325,1519)"/>
<path d="M0 0 C0 0.99 0 1.98 0 3 C1.65 2.67 3.3 2.34 5 2 C5.33 2.66 5.66 3.32 6 4 C0.96488101 5.0070238 -2.23947038 4.97387813 -7 3 C-6.67 2.34 -6.34 1.68 -6 1 C-3.911361 0.32624548 -2.19636905 0 0 0 Z " fill="#009BE7" transform="translate(1208,1550)"/>
<path d="M0 0 C0.99 0.99 1.98 1.98 3 3 C-1.29 4.65 -5.58 6.3 -10 8 C-10.33 7.34 -10.66 6.68 -11 6 C-10.34 6 -9.68 6 -9 6 C-8.67 5.34 -8.34 4.68 -8 4 C-2.77777778 2 -2.77777778 2 0 2 C0 1.34 0 0.68 0 0 Z " fill="#00A1E5" transform="translate(1296,1530)"/>
<path d="M0 0 C1.20220203 3.53094302 0.79532349 6.12898982 0.0625 9.75 C-0.13214844 10.73484375 -0.32679688 11.7196875 -0.52734375 12.734375 C-0.68332031 13.48203125 -0.83929687 14.2296875 -1 15 C-2.32 15.33 -3.64 15.66 -5 16 C-3.41078475 10.63904723 -1.81027062 5.29156027 0 0 Z " fill="#4481E7" transform="translate(779,426)"/>
<path d="M0 0 C-1.93694678 0.81381795 -3.87457711 1.62600916 -5.8125 2.4375 C-6.89144531 2.88996094 -7.97039062 3.34242187 -9.08203125 3.80859375 C-11.0295126 4.60375013 -13.00438943 5.33479648 -15 6 C-14.01115296 3.43218752 -13.44413411 2.23750029 -10.9765625 0.91796875 C-10.20054688 0.67691406 -9.42453125 0.43585938 -8.625 0.1875 C-7.85414062 -0.06644531 -7.08328125 -0.32039063 -6.2890625 -0.58203125 C-3.82655314 -1.03167033 -2.35084396 -0.78898188 0 0 Z " fill="#429546" transform="translate(1659,1177)"/>
<path d="M0 0 C2.31 0.33 4.62 0.66 7 1 C4.47043472 4.0916909 1.77545388 4.90931332 -2 6 C-2.33 5.34 -2.66 4.68 -3 4 C-2.01 2.68 -1.02 1.36 0 0 Z " fill="#00B3F5" transform="translate(1313,1520)"/>
<path d="M0 0 C0.59167969 0.13277344 1.18335938 0.26554687 1.79296875 0.40234375 C5.85446525 1.31005178 9.91374171 2.2091113 14 3 C14 3.33 14 3.66 14 4 C4.58997722 4.3690205 4.58997722 4.3690205 0 2 C0 1.34 0 0.68 0 0 Z " fill="#0000DF" transform="translate(1198,1552)"/>
<path d="M0 0 C2.97 0.495 2.97 0.495 6 1 C6 1.99 6 2.98 6 4 C4 5 4 5 1 5 C0.67 3.35 0.34 1.7 0 0 Z " fill="#0056BA" transform="translate(1260,1540)"/>
<path d="M0 0 C0.33 0.99 0.66 1.98 1 3 C-0.98 3.99 -2.96 4.98 -5 6 C-5 5.34 -5 4.68 -5 4 C-6.32 3.67 -7.64 3.34 -9 3 C-6.03 2.01 -3.06 1.02 0 0 Z " fill="#0052C2" transform="translate(1317,1517)"/>
<path d="M0 0 C2.71435596 0.93305986 3.78043163 1.62673377 5.25 4.125 C5.4975 4.74375 5.745 5.3625 6 6 C4.35 5.67 2.7 5.34 1 5 C1 4.01 1 3.02 1 2 C0.01 1.67 -0.98 1.34 -2 1 C-1.34 0.67 -0.68 0.34 0 0 Z " fill="#006DCD" transform="translate(1257,1541)"/>
<path d="M0 0 C-1.61992165 0.86375896 -3.24611861 1.71575854 -4.875 2.5625 C-6.23238281 3.27599609 -6.23238281 3.27599609 -7.6171875 4.00390625 C-8.40351562 4.33261719 -9.18984375 4.66132812 -10 5 C-10.66 4.67 -11.32 4.34 -12 4 C-9.27887058 0.4785384 -4.19677615 -2.09838808 0 0 Z " fill="#00D4EC" transform="translate(1311,1527)"/>
<path d="M0 0 C0.66 0.66 1.32 1.32 2 2 C0.35 2.33 -1.3 2.66 -3 3 C-3 3.66 -3 4.32 -3 5 C-3.99 5 -4.98 5 -6 5 C-5.67 3.68 -5.34 2.36 -5 1 C-2.625 0.375 -2.625 0.375 0 0 Z " fill="#0153C5" transform="translate(1214,1548)"/>
<path d="M0 0 C0.33 0.66 0.66 1.32 1 2 C2.32 2.66 3.64 3.32 5 4 C2.03 3.67 -0.94 3.34 -4 3 C-3 1 -3 1 0 0 Z " fill="#00A0FF" transform="translate(1227,1551)"/>
<path d="M0 0 C0.99 0 1.98 0 3 0 C3 0.66 3 1.32 3 2 C3.66 2 4.32 2 5 2 C5.33 2.99 5.66 3.98 6 5 C4 5 2 5 0 5 C0 3.35 0 1.7 0 0 Z " fill="#0055B6" transform="translate(1275,1535)"/>
</svg>
