<?xml version="1.0" encoding="UTF-8"?>
<svg version="1.1" xmlns="http://www.w3.org/2000/svg" width="1024" height="1025">
<path d="M0 0 C1.31314682 -0.00705963 2.62629364 -0.01411926 3.97923279 -0.02139282 C8.19970246 -0.04093958 12.42011431 -0.04608521 16.640625 -0.046875 C17.35990299 -0.04716957 18.07918098 -0.04746414 18.82025528 -0.04776764 C40.31556838 -0.0491905 61.56639756 0.15136694 82.890625 3.203125 C83.6036377 3.30258423 84.31665039 3.40204346 85.05126953 3.5045166 C136.49110975 10.6858371 185.45206129 25.05137528 232.890625 46.203125 C233.78507324 46.59999512 234.67952148 46.99686523 235.60107422 47.40576172 C249.18225982 53.47908559 262.03255283 60.73954473 274.890625 68.203125 C276.49606627 69.12765189 278.1015333 70.05213404 279.70703125 70.9765625 C287.9748373 75.7621866 296.03733394 80.75569895 303.890625 86.203125 C304.51372559 86.63318848 305.13682617 87.06325195 305.77880859 87.50634766 C320.83369904 97.91837798 335.4429863 108.84402302 349.28710938 120.82617188 C350.94968831 122.25384319 352.62884245 123.6597684 354.3125 125.0625 C362.4461377 131.87337401 370.00771972 139.11195829 377.41943359 146.69921875 C380.68535477 150.03776412 384.00688832 153.31860318 387.34375 156.5859375 C393.92071048 163.05171624 400.22029256 169.49972539 405.93359375 176.75 C407.75647379 179.0349674 409.66031761 181.17971699 411.640625 183.328125 C417.25958621 189.58382734 422.2443256 196.35050117 427.28857422 203.0703125 C428.73402936 204.994649 430.18859511 206.91171912 431.64453125 208.828125 C449.62310801 232.70388852 464.44184031 258.56855804 477.890625 285.203125 C478.36000488 286.13108887 478.82938477 287.05905273 479.31298828 288.01513672 C503.54487919 336.30068046 518.70988943 388.97721148 526.203125 442.390625 C526.35031982 443.43710205 526.49751465 444.4835791 526.64916992 445.56176758 C527.11333033 449.1042159 527.51715861 452.65023356 527.890625 456.203125 C527.97676056 457.00679504 528.06289612 457.81046509 528.15164185 458.63848877 C529.91657383 475.62042852 530.25467092 492.54766627 530.20868301 509.60852051 C530.20303927 511.73543371 530.20022107 513.86233894 530.19760132 515.98925781 C530.16138501 536.21291642 529.76011954 556.15055491 526.890625 576.203125 C526.64119141 578.08161133 526.64119141 578.08161133 526.38671875 579.99804688 C514.77131294 666.76943028 481.37172917 750.5557116 421.890625 828.203125 C421.33890625 828.89760742 420.7871875 829.59208984 420.21875 830.30761719 C414.3699981 837.64873984 408.44970495 844.8920585 402.0859375 851.796875 C400.25340563 853.80548645 398.47205602 855.84273448 396.69580078 857.90063477 C393.20397333 861.89428985 389.55928959 865.69556521 385.8125 869.44921875 C385.16041565 870.1046315 384.5083313 870.76004425 383.83648682 871.43531799 C382.46635261 872.81047546 381.09489702 874.18431755 379.72216797 875.55688477 C377.65431839 877.62691715 375.59460975 879.70482173 373.53515625 881.78320312 C366.99124841 888.35427759 360.4524717 894.68783941 353.14599609 900.4152832 C350.92568634 902.17533174 348.84263177 904.02731387 346.765625 905.953125 C325.13617195 925.35432178 299.97768351 941.66072774 274.890625 956.203125 C274.23610352 956.58259277 273.58158203 956.96206055 272.90722656 957.35302734 C211.47376664 992.71623249 143.33842051 1014.75123533 72.890625 1022.203125 C72.11298798 1022.28926056 71.33535095 1022.37539612 70.53414917 1022.46414185 C53.18606239 1024.34842371 35.8852371 1024.5633999 18.453125 1024.515625 C17.02021288 1024.5134029 15.58730069 1024.51122637 14.15438843 1024.50909424 C-6.07719782 1024.46737693 -26.05194291 1024.14911777 -46.109375 1021.203125 C-47.57008787 1020.9966322 -49.03086598 1020.79060049 -50.49169922 1020.58496094 C-132.51631707 1008.90331419 -210.42975473 979.41237759 -278.109375 931.203125 C-278.93904785 930.61289551 -279.7687207 930.02266602 -280.62353516 929.41455078 C-294.94248503 919.17058132 -308.77873888 908.29389965 -321.73828125 896.36328125 C-323.73494073 894.54424881 -325.76039923 892.77517988 -327.8046875 891.01049805 C-331.79900435 887.51786836 -335.60108882 883.87251465 -339.35546875 880.125 C-340.0108815 879.47291565 -340.66629425 878.8208313 -341.34156799 878.14898682 C-342.71672546 876.77885261 -344.09056755 875.40739702 -345.46313477 874.03466797 C-347.53316715 871.96681839 -349.61107173 869.90710975 -351.68945312 867.84765625 C-358.26052759 861.30374841 -364.59408941 854.7649717 -370.3215332 847.45849609 C-372.08158174 845.23818634 -373.93356387 843.15513177 -375.859375 841.078125 C-402.00167852 811.93333909 -424.35105276 776.5810414 -441.09326172 741.32080078 C-442.2531552 738.90347352 -443.44847527 736.50510308 -444.64453125 734.10546875 C-475.44175082 671.79213515 -494.06169042 599.69217222 -494.3125 529.99609375 C-494.32308945 528.02842796 -494.32308945 528.02842796 -494.33389282 526.02101135 C-494.35341234 521.81087685 -494.35858482 517.60080052 -494.359375 513.390625 C-494.35966957 512.67288406 -494.35996414 511.95514313 -494.36026764 511.21565247 C-494.36169118 489.74845868 -494.20856148 468.49461832 -491.109375 447.203125 C-491.0075592 446.49764526 -490.90574341 445.79216553 -490.80084229 445.06530762 C-483.31718516 393.55609631 -469.39118616 344.74600123 -448.109375 297.203125 C-447.71395508 296.31302734 -447.31853516 295.42292969 -446.91113281 294.50585938 C-440.83628963 280.91922864 -433.57163983 268.06829372 -426.109375 255.203125 C-425.20801565 253.63299483 -424.30695235 252.06269465 -423.40625 250.4921875 C-418.00955576 241.1386843 -412.25563305 232.08159251 -406.109375 223.203125 C-405.71282715 222.63029785 -405.3162793 222.0574707 -404.90771484 221.46728516 C-394.70426536 206.81157323 -383.81743903 192.68628261 -372.109375 179.203125 C-371.15804687 178.10097656 -371.15804687 178.10097656 -370.1875 176.9765625 C-368.50663039 175.04124933 -366.81117344 173.1200492 -365.109375 171.203125 C-364.42488281 170.42582031 -363.74039063 169.64851562 -363.03515625 168.84765625 C-357.6077896 162.73831683 -351.92979476 156.93681665 -346.109375 151.203125 C-343.29596502 148.40373533 -340.50290808 145.5860478 -337.7265625 142.75 C-331.27825458 136.19079597 -324.85057322 129.91266879 -317.6171875 124.21875 C-315.1894086 122.26745107 -312.93972497 120.21164239 -310.671875 118.078125 C-281.0303368 91.11844026 -244.68566026 70.16691623 -209.109375 52.203125 C-207.7174292 51.49905518 -207.7174292 51.49905518 -206.29736328 50.78076172 C-143.51312136 19.27276195 -70.44710605 0.25244786 0 0 Z " fill="#0866FF" transform="translate(494.109375,-0.203125)"/>
<path d="M0 0 C1.2778688 -0.0096579 2.55573761 -0.0193158 3.87232971 -0.02926636 C7.98909451 -0.05626837 12.10581469 -0.0671812 16.22265625 -0.07421875 C16.9237149 -0.0758112 17.62477356 -0.07740364 18.34707642 -0.07904434 C40.2646714 -0.12130202 61.83629389 0.65458139 83.56494141 3.72119141 C87.04475577 4.20486688 90.52537564 4.63088401 94.015625 5.03125 C106.79041439 6.52394532 120.03981899 8.15650216 132.28515625 12.23828125 C132.28515625 59.09828125 132.28515625 105.95828125 132.28515625 154.23828125 C119.74515625 153.90828125 107.20515625 153.57828125 94.28515625 153.23828125 C84.31629961 153.05628892 84.31629961 153.05628892 74.34765625 152.98828125 C73.5742691 152.98727417 72.80088196 152.98626709 72.00405884 152.98522949 C58.92080518 152.99652692 46.16084967 153.75299131 33.28515625 156.23828125 C32.49931152 156.38813477 31.7134668 156.53798828 30.90380859 156.69238281 C9.12292751 161.00008594 -11.16877587 169.82873901 -24.58984375 188.17578125 C-49.81119649 227.170931 -43.12366421 279.08217511 -43.71484375 322.23828125 C11.39515625 322.23828125 66.50515625 322.23828125 123.28515625 322.23828125 C122.65883374 329.12782888 121.98744022 335.61607335 120.6484375 342.33984375 C120.48873474 343.16596664 120.32903198 343.99208954 120.16448975 344.84324646 C119.82355893 346.60436941 119.48027949 348.36503913 119.13479614 350.12527466 C118.21003511 354.83913383 117.30379174 359.55656864 116.39453125 364.2734375 C116.12051231 365.69096565 116.12051231 365.69096565 115.84095764 367.13713074 C114.28811268 375.1821255 112.80086529 383.23719926 111.34765625 391.30078125 C110.87251219 393.93361483 110.39728684 396.56643353 109.921875 399.19921875 C109.7980394 399.88542801 109.6742038 400.57163727 109.5466156 401.27864075 C107.42228299 413.03314917 105.25092473 424.77913132 103.08963013 436.52688599 C102.71707807 438.55199742 102.34460614 440.5771236 101.97221375 442.6022644 C101.63413781 444.44070255 101.29587846 446.27910698 100.95735168 448.11746216 C99.05016941 458.488113 97.17143781 468.8637327 95.28515625 479.23828125 C49.41515625 479.23828125 3.54515625 479.23828125 -43.71484375 479.23828125 C-43.71484375 595.39828125 -43.71484375 711.55828125 -43.71484375 831.23828125 C-78.28117593 834.69491447 -78.28117593 834.69491447 -89.51953125 834.63671875 C-90.81135818 834.64094849 -92.10318512 834.64517822 -93.43415833 834.64953613 C-96.80002073 834.65795369 -100.16541697 834.64581095 -103.53121567 834.62520599 C-105.6326776 834.61303313 -107.73411508 834.60564754 -109.83560181 834.59918213 C-129.93110064 834.52807573 -149.79984322 834.18597024 -169.71484375 831.23828125 C-170.43490601 831.13410889 -171.15496826 831.02993652 -171.89685059 830.92260742 C-191.36513821 828.10546432 -210.4510795 824.42605609 -229.71484375 820.23828125 C-229.71484375 707.70828125 -229.71484375 595.17828125 -229.71484375 479.23828125 C-264.36484375 479.23828125 -299.01484375 479.23828125 -334.71484375 479.23828125 C-334.71484375 427.42828125 -334.71484375 375.61828125 -334.71484375 322.23828125 C-300.06484375 322.23828125 -265.41484375 322.23828125 -229.71484375 322.23828125 C-229.79347602 294.91267817 -229.79347602 294.91267817 -229.89501953 267.5871582 C-229.94629571 247.04699983 -229.68912605 226.70179163 -227.71484375 206.23828125 C-227.60115448 205.03726273 -227.60115448 205.03726273 -227.48516846 203.8119812 C-227.06843319 199.54423272 -226.5556283 195.29769436 -225.96484375 191.05078125 C-225.7949292 189.81996826 -225.62501465 188.58915527 -225.44995117 187.32104492 C-219.21896647 144.37165902 -204.61114163 102.25507499 -175.71484375 69.23828125 C-174.99941406 68.40167969 -174.28398437 67.56507813 -173.546875 66.703125 C-159.46332251 50.5755879 -142.4397358 38.39526175 -123.71484375 28.23828125 C-123.07981934 27.89200684 -122.44479492 27.54573242 -121.79052734 27.18896484 C-85.32227611 7.72594551 -40.85237589 0.25955132 0 0 Z " fill="#FEFEFF" transform="translate(617.71484375,189.76171875)"/>
</svg>
