<?xml version="1.0" encoding="UTF-8"?>
<svg version="1.1" xmlns="http://www.w3.org/2000/svg" width="1024" height="1024">
<path d="M0 0 C0.82175028 -0.00282738 1.64350056 -0.00565475 2.49015236 -0.00856781 C6.85761439 -0.02344127 11.22504453 -0.03273961 15.5925293 -0.03710938 C19.11054113 -0.04144774 22.62830129 -0.05517456 26.14624023 -0.078125 C60.12344523 -0.29508959 93.69476789 1.51157121 127.23828125 7.203125 C128.28838379 7.38069336 129.33848633 7.55826172 130.42041016 7.74121094 C175.09869785 15.51195017 227.43290938 32.29174143 255.38964844 70.78857422 C268.02853421 88.84040406 275.58559321 109.11484687 275.49897766 131.26867676 C275.50280321 132.32639329 275.50662876 133.38410983 275.51057023 134.47387838 C275.52081968 137.98849676 275.51692338 141.50294929 275.51293945 145.01757812 C275.51729053 147.54991811 275.52247499 150.08225678 275.52842712 152.61459351 C275.54040357 158.7630156 275.54297304 164.91137743 275.54062686 171.05980891 C275.53883776 176.06463237 275.540606 181.06944264 275.5448513 186.07426453 C275.54544649 186.78888232 275.54604168 187.50350012 275.54665491 188.23977301 C275.54786678 189.69198724 275.54908092 191.14420147 275.55029728 192.5964157 C275.56115731 206.19612873 275.55901832 219.79581693 275.55291244 233.39553136 C275.54775134 245.79775852 275.55898011 258.19990695 275.57801066 270.60211855 C275.59745445 283.3728361 275.60563322 296.14351652 275.6018874 308.91424894 C275.59998438 316.0693696 275.60237389 323.22442338 275.61660194 330.37953186 C275.62986443 337.11672252 275.62716749 343.85373167 275.61419106 350.59093094 C275.61184112 353.05017273 275.61450246 355.50942577 275.62281418 357.96865463 C275.74316775 396.37780572 267.11315595 430.43346146 240.05078125 458.765625 C214.62387582 483.52432683 177.49622378 496.34415557 142.34367371 496.35461426 C141.26810268 496.35884667 140.19253166 496.36307908 139.08436757 496.36743975 C135.49138356 496.38042331 131.89842172 496.38648087 128.30541992 496.39257812 C125.72426215 496.4005244 123.1431057 496.40891266 120.56195068 496.41770935 C115.00672628 496.4360192 109.45150137 496.45088181 103.89626122 496.46348572 C95.84372405 496.4818443 87.79121533 496.50651019 79.73870078 496.53285962 C66.64522711 496.57562133 53.55174549 496.61473347 40.45825195 496.65087891 C39.67524695 496.65304171 38.89224194 496.65520451 38.08550952 496.65743285 C33.32600817 496.67056029 28.56650659 496.6836019 23.80700493 496.69661427 C16.68880047 496.71607684 9.57059626 496.73562521 2.45239258 496.75537109 C1.6736832 496.75752996 0.89497382 496.75968883 0.09266718 496.76191312 C-12.94012182 496.79816143 -25.97289697 496.8381319 -39.00566691 496.88067389 C-47.02591402 496.90667373 -55.04615717 496.92936991 -63.06642564 496.94765747 C-69.23184361 496.96195291 -75.39723813 496.98109016 -81.56263733 497.00190926 C-84.07508588 497.00959958 -86.58753994 497.01569727 -89.09999657 497.02000237 C-115.72819584 496.85470134 -115.72819584 496.85470134 -142.13671875 499.828125 C-143.09094727 500.00069824 -144.04517578 500.17327148 -145.02832031 500.35107422 C-178.52661824 506.81090765 -207.617098 524.03221626 -227.1640625 552.234375 C-237.71518363 568.05126902 -244.00401567 585.39547038 -248.57421875 603.765625 C-248.76918945 604.53036133 -248.96416016 605.29509766 -249.16503906 606.08300781 C-253.40515343 624.2624047 -253.09556687 643.03495012 -253.16643572 661.58232093 C-253.18230338 665.20310384 -253.20901503 668.82380836 -253.23446655 672.4445343 C-253.28084356 679.26852838 -253.3177833 686.09253792 -253.35113943 692.91660672 C-253.38965528 700.69929416 -253.43898582 708.48190207 -253.48912358 716.26452196 C-253.59183069 732.24399843 -253.68128561 748.22351992 -253.76171875 764.203125 C-266.74993206 764.29632137 -279.73806417 764.36713989 -292.72654533 764.41037369 C-298.75938713 764.43113687 -304.79199805 764.45924588 -310.82470703 764.50488281 C-316.66028192 764.54874585 -322.49563649 764.57234654 -328.33136368 764.58263397 C-330.54380887 764.5899534 -332.75624372 764.6042435 -334.9685936 764.62604523 C-369.29806384 764.95050499 -397.8371766 753.94635244 -422.8203125 730.140625 C-432.22427851 720.90730173 -439.8718736 710.40082742 -446.76171875 699.203125 C-447.17276855 698.53748535 -447.58381836 697.8718457 -448.00732422 697.18603516 C-480.46443817 643.7921183 -487.43545646 576.32912988 -487.15283203 515.06152344 C-487.13571014 511.32008426 -487.14596002 507.57928452 -487.1631546 503.83786678 C-487.41280561 439.5924022 -478.32755787 366.59252928 -434.76171875 316.203125 C-433.73691406 314.9965625 -433.73691406 314.9965625 -432.69140625 313.765625 C-413.21669559 291.4290393 -388.28865282 276.60604845 -359.51171875 269.515625 C-358.70323486 269.31300049 -357.89475098 269.11037598 -357.06176758 268.90161133 C-343.57282806 265.74809645 -329.89990279 264.90110316 -316.08836365 264.96261597 C-314.59288764 264.96174082 -313.09741193 264.9599842 -311.60193783 264.95743763 C-307.54714123 264.95302069 -303.49245273 264.96088858 -299.43766987 264.97099376 C-295.04460826 264.97970876 -290.65155173 264.97670246 -286.25848389 264.97518921 C-278.66529864 264.9741454 -271.07214802 264.98036896 -263.47897148 264.99166489 C-252.50079825 265.00798576 -241.52264161 265.0131346 -230.54445756 265.01564087 C-212.72892904 265.02000768 -194.91341893 265.03328916 -177.09790039 265.05224609 C-159.80167736 265.07063121 -142.50545935 265.08477481 -125.20922852 265.09326172 C-123.60743085 265.09404989 -123.60743085 265.09404989 -121.97327363 265.09485398 C-116.61559286 265.09746424 -111.25791206 265.09999161 -105.90023124 265.10247779 C-61.52071368 265.1231787 -17.14121862 265.15893065 27.23828125 265.203125 C27.23828125 253.983125 27.23828125 242.763125 27.23828125 231.203125 C-54.93171875 231.203125 -137.10171875 231.203125 -221.76171875 231.203125 C-221.76171875 81.24688437 -221.76171875 81.24688437 -195.76171875 53.765625 C-156.41964534 15.44752336 -94.84924723 7.15602095 -42.65234375 2 C-41.9926358 1.93356796 -41.33292786 1.86713593 -40.65322876 1.7986908 C-27.10144931 0.50300817 -13.60396502 0.03250402 0 0 Z M-149.93359375 97.6953125 C-157.59233624 108.20153618 -158.86963373 119.59175232 -157.76171875 132.203125 C-156.21267146 139.27486262 -152.90868561 145.32712961 -148.76171875 151.203125 C-148.20484375 152.04875 -147.64796875 152.894375 -147.07421875 153.765625 C-139.18772593 162.07841473 -128.52367863 167.41712566 -117.10546875 168.44140625 C-105.34078197 168.74845165 -94.92754612 165.67545665 -85.76171875 158.203125 C-85.07464844 157.65140625 -84.38757813 157.0996875 -83.6796875 156.53125 C-75.59049521 149.29273759 -70.29276795 138.66393095 -69.5234375 127.85546875 C-69.27227101 115.28392512 -71.83592067 105.17304618 -79.76171875 95.203125 C-80.23996094 94.58824219 -80.71820313 93.97335938 -81.2109375 93.33984375 C-89.30559612 84.14414844 -101.8938723 79.9421122 -113.76171875 78.953125 C-128.76873307 80.20370953 -140.13216687 86.31176554 -149.93359375 97.6953125 Z " fill="#3672A4" transform="translate(486.76171875,-0.203125)"/>
<path d="M0 0 C12.85782886 -0.09320407 25.71557565 -0.16401871 38.57367516 -0.20724869 C44.54598406 -0.22801024 50.51805968 -0.25611612 56.49023438 -0.30175781 C62.2674548 -0.34562687 68.04445263 -0.36922276 73.82182693 -0.37950897 C76.01194379 -0.38682735 78.20205024 -0.40111529 80.39207077 -0.42292023 C96.99839907 -0.58149317 112.57379301 0.81557548 128.125 7.125 C129.22038086 7.56114624 129.22038086 7.56114624 130.33789062 8.00610352 C142.36424638 13.01665272 153.18013507 20.50171825 163 29 C163.82886719 29.69609375 164.65773438 30.3921875 165.51171875 31.109375 C171.78045523 36.52372013 176.98898711 42.41606197 182 49 C182.39687012 49.5165918 182.79374023 50.03318359 183.20263672 50.56542969 C212.22841386 88.62938019 223.72040733 136.39179004 230 183 C230.16661133 184.20817383 230.33322266 185.41634766 230.50488281 186.66113281 C233.27425528 207.96179272 233.31260718 229.37826214 233.36791611 250.82151413 C233.37485668 253.07839694 233.38650903 255.33521384 233.39907837 257.59207153 C233.71189702 322.76892737 225.18492057 398.36172695 180 449 C179.14921875 449.98226563 178.2984375 450.96453125 177.421875 451.9765625 C152.62382938 480.21803483 117.28172836 495.56459575 80.18387449 498.79734695 C74.15552013 499.18105064 68.12414765 499.13356102 62.08613586 499.12025452 C60.59996354 499.12069135 59.11379129 499.1215683 57.62761945 499.12284368 C53.57069888 499.12506671 49.51380501 499.12109756 45.45688784 499.11606562 C41.0719005 499.11172965 36.68691455 499.11320977 32.30192566 499.1139679 C24.71355651 499.11449114 17.12519598 499.11136519 9.53682899 499.10573006 C-1.43454969 499.09758802 -12.40592422 499.09499707 -23.3773056 499.09374207 C-41.17951795 499.09155579 -58.9817257 499.08490723 -76.78393555 499.07543945 C-94.07267229 499.06625435 -111.36140779 499.05917889 -128.65014648 499.05493164 C-130.24982817 499.05453756 -130.24982817 499.05453756 -131.88182666 499.05413551 C-137.23214718 499.05283043 -142.58246772 499.05156673 -147.93278825 499.05032361 C-192.28852885 499.03996422 -236.64426382 499.02208141 -281 499 C-281 510.22 -281 521.44 -281 533 C-198.83 533 -116.66 533 -32 533 C-31.9071875 563.7209375 -31.9071875 563.7209375 -31.8125 595.0625 C-31.78518799 601.50402588 -31.75787598 607.94555176 -31.72973633 614.58227539 C-31.71618652 622.51257324 -31.71618652 622.51257324 -31.71366882 626.23753357 C-31.70790009 629.48373771 -31.69080918 632.72969414 -31.67093492 635.97583514 C-31.53919183 661.3872451 -34.22430003 681.99820388 -51 702 C-51.61359375 702.77601563 -52.2271875 703.55203125 -52.859375 704.3515625 C-87.69794787 746.48539209 -154.41693396 756.71765218 -205.52647114 761.66380882 C-209.23316386 762.00639247 -212.94180589 762.31932762 -216.65234375 762.6171875 C-217.45645124 762.68186848 -218.26055874 762.74654945 -219.08903313 762.81319046 C-236.58904896 764.18666461 -254.0397099 764.46397101 -271.58666992 764.39111328 C-275.73571614 764.37400885 -279.88418495 764.38423222 -284.03321171 764.40143585 C-301.38275825 764.46223906 -318.61065884 764.04532006 -335.90625 762.6171875 C-336.65258257 762.55573925 -337.39891514 762.494291 -338.16786385 762.43098068 C-397.21897547 757.45171071 -465.4989908 744.11292011 -505.75 696.625 C-520.687385 677.58185999 -529.16206557 655.71126809 -529.14044189 631.49139404 C-529.14489858 629.92219644 -529.14489858 629.92219644 -529.1494453 628.32129788 C-529.15810457 624.82193783 -529.15963823 621.3226121 -529.16113281 617.82324219 C-529.16576312 615.31119718 -529.17078807 612.79915287 -529.17617798 610.28710938 C-529.18928762 603.46415143 -529.19578203 596.64120474 -529.20018864 589.81823635 C-529.20295783 585.54973413 -529.20719655 581.28123416 -529.21169281 577.01273346 C-529.22388446 565.17263812 -529.23418204 553.33254457 -529.2375679 541.49244308 C-529.23778747 540.73532491 -529.23800703 539.97820673 -529.23823325 539.19814558 C-529.23845153 538.43929943 -529.23866981 537.68045328 -529.2388947 536.89861178 C-529.23933815 535.36111879 -529.23978472 533.8236258 -529.24023438 532.28613281 C-529.2404558 531.52349661 -529.24067723 530.76086041 -529.24090537 529.97511402 C-529.24484541 517.64376835 -529.26227555 505.31248207 -529.2855939 492.9811593 C-529.30939323 480.29193436 -529.32177374 467.60273908 -529.32293582 454.91349149 C-529.3238481 447.8007822 -529.32948606 440.68815017 -529.34775543 433.57546234 C-529.3649076 426.87444773 -529.36634539 420.17360365 -529.35761642 413.4725647 C-529.35685103 411.02622332 -529.36112231 408.5798738 -529.37107468 406.13355255 C-529.51508699 368.49737072 -521.2637736 334.32932073 -494.3125 306.75 C-487.18774608 299.69652717 -479.65652786 294.02343007 -471 289 C-470.38801758 288.63970703 -469.77603516 288.27941406 -469.14550781 287.90820312 C-453.75303833 278.95287896 -437.38723504 273.63708135 -420 270 C-419.19363161 269.82439576 -418.38726322 269.64879152 -417.55645943 269.46786594 C-405.64648301 267.25614134 -393.56607534 267.69914144 -381.49951172 267.69702148 C-378.91761512 267.68935101 -376.335721 267.68080289 -373.75382996 267.67144775 C-368.21233158 267.65266977 -362.67085495 267.64089958 -357.12932968 267.63390923 C-349.0967564 267.6236806 -341.06424836 267.60157671 -333.03170921 267.57652331 C-319.96874442 267.53600993 -306.90577332 267.5035201 -293.84277344 267.47680664 C-293.06259594 267.47520934 -292.28241844 267.47361204 -291.47859921 267.47196633 C-290.69750931 267.47036743 -289.91641941 267.46876853 -289.11166012 267.46712118 C-278.0542523 267.44446407 -266.99685124 267.41982076 -255.93945312 267.39282227 C-255.16205736 267.39092612 -254.3846616 267.38902997 -253.58370839 267.38707637 C-240.57336311 267.35518295 -227.56303 267.31942077 -214.55270016 267.28178078 C-206.55131297 267.25888255 -198.54993388 267.2398793 -190.54852565 267.22611404 C-184.40154388 267.21536599 -178.25458195 267.1999381 -172.10761452 267.18292236 C-169.60322353 267.17681732 -167.09882794 267.17233008 -164.59443092 267.16966438 C-138.92539996 267.38482741 -138.92539996 267.38482741 -113.4375 264.75 C-112.66414307 264.62069092 -111.89078613 264.49138184 -111.09399414 264.3581543 C-87.52879892 260.20071547 -66.54355747 251.2750887 -48 236 C-47.28328125 235.43023437 -46.5665625 234.86046875 -45.828125 234.2734375 C-18.8815413 211.81795108 -5.38070051 174.31853833 -1.71408176 140.3512764 C-1.04694682 132.76205752 -0.83176912 125.22850081 -0.79467773 117.61230469 C-0.77982834 115.69309959 -0.77982834 115.69309959 -0.76467896 113.73512268 C-0.73794648 110.26695471 -0.71676826 106.79877358 -0.69667697 103.33056164 C-0.67461901 99.6910743 -0.64732844 96.05162606 -0.62062073 92.41217041 C-0.57095887 85.53835231 -0.52592317 78.66451221 -0.48259836 71.79065156 C-0.43299754 63.95736468 -0.37816509 56.12411706 -0.32291877 48.29086828 C-0.20950634 32.1939485 -0.10258065 16.09699254 0 0 Z M-173 611 C-182.52063728 622.31510294 -185.03215078 633.38997837 -184 648 C-182.36468034 655.97101527 -179.04434388 662.65468178 -174 669 C-173.52175781 669.61488281 -173.04351563 670.22976563 -172.55078125 670.86328125 C-166.09302801 678.19941906 -155.17367503 683.44595814 -145.55078125 684.84765625 C-133.05528103 685.59394187 -121.68195086 682.73078313 -111.87109375 674.71484375 C-103.16301443 666.73395268 -96.54316683 657.40572924 -95.76171875 645.3125 C-95.38934341 631.01927162 -98.04345914 619.8571325 -108 609 C-118.13625301 599.98494688 -129.16053058 595.57304093 -142.67578125 595.72265625 C-154.64336248 596.7211266 -165.08588394 602.0164088 -173 611 Z " fill="#FFD242" transform="translate(791,260)"/>
</svg>
